<?xml version="1.0" encoding="utf-8" standalone="no"?>
<!DOCTYPE svg PUBLIC "-//W3C//DTD SVG 1.1//EN"
  "http://www.w3.org/Graphics/SVG/1.1/DTD/svg11.dtd">
<!-- Created with matplotlib (https://matplotlib.org/) -->
<svg height="122.4pt" version="1.1" viewBox="0 0 248.4 122.4" width="248.4pt" xmlns="http://www.w3.org/2000/svg" xmlns:xlink="http://www.w3.org/1999/xlink">
 <defs>
  <style type="text/css">
*{stroke-linecap:butt;stroke-linejoin:round;}
  </style>
 </defs>
 <g id="figure_1">
  <g id="patch_1">
   <path d="M 0 122.4 
L 248.4 122.4 
L 248.4 0 
L 0 0 
z
" style="fill:#ffffff;"/>
  </g>
  <g id="axes_1">
   <g id="patch_2">
    <path d="M 28.501364 91.36425 
L 122.76 91.36425 
L 122.76 3.69 
L 28.501364 3.69 
z
" style="fill:#ffffff;"/>
   </g>
   <g id="matplotlib.axis_1">
    <g id="xtick_1">
     <g id="line2d_1">
      <defs>
       <path d="M 0 2 
L 0 -2 
" id="m1b00f52a8d" style="stroke:#000000;stroke-width:0.8;"/>
      </defs>
      <g>
       <use style="stroke:#000000;stroke-width:0.8;" x="36.378711" xlink:href="#m1b00f52a8d" y="91.36425"/>
      </g>
     </g>
     <g id="text_1">
      <!-- 1 -->
      <defs>
       <path d="M 37.25 0 
L 28.46875 0 
L 28.46875 56 
Q 25.296875 52.984375 20.140625 49.953125 
Q 14.984375 46.921875 10.890625 45.40625 
L 10.890625 53.90625 
Q 18.265625 57.375 23.78125 62.296875 
Q 29.296875 67.234375 31.59375 71.875 
L 37.25 71.875 
z
" id="ArialMT-49"/>
      </defs>
      <g transform="translate(34.294193 101.230462)scale(0.07497 -0.07497)">
       <use xlink:href="#ArialMT-49"/>
      </g>
     </g>
    </g>
    <g id="xtick_2">
     <g id="line2d_2">
      <g>
       <use style="stroke:#000000;stroke-width:0.8;" x="62.546691" xlink:href="#m1b00f52a8d" y="91.36425"/>
      </g>
     </g>
     <g id="text_2">
      <!-- 10 -->
      <defs>
       <path d="M 4.15625 35.296875 
Q 4.15625 48 6.765625 55.734375 
Q 9.375 63.484375 14.515625 67.671875 
Q 19.671875 71.875 27.484375 71.875 
Q 33.25 71.875 37.59375 69.546875 
Q 41.9375 67.234375 44.765625 62.859375 
Q 47.609375 58.5 49.21875 52.21875 
Q 50.828125 45.953125 50.828125 35.296875 
Q 50.828125 22.703125 48.234375 14.96875 
Q 45.65625 7.234375 40.5 3 
Q 35.359375 -1.21875 27.484375 -1.21875 
Q 17.140625 -1.21875 11.234375 6.203125 
Q 4.15625 15.140625 4.15625 35.296875 
z
M 13.1875 35.296875 
Q 13.1875 17.671875 17.3125 11.828125 
Q 21.4375 6 27.484375 6 
Q 33.546875 6 37.671875 11.859375 
Q 41.796875 17.71875 41.796875 35.296875 
Q 41.796875 52.984375 37.671875 58.78125 
Q 33.546875 64.59375 27.390625 64.59375 
Q 21.34375 64.59375 17.71875 59.46875 
Q 13.1875 52.9375 13.1875 35.296875 
z
" id="ArialMT-48"/>
      </defs>
      <g transform="translate(58.377657 101.230462)scale(0.07497 -0.07497)">
       <use xlink:href="#ArialMT-49"/>
       <use x="55.615234" xlink:href="#ArialMT-48"/>
      </g>
     </g>
    </g>
    <g id="xtick_3">
     <g id="line2d_3">
      <g>
       <use style="stroke:#000000;stroke-width:0.8;" x="88.714672" xlink:href="#m1b00f52a8d" y="91.36425"/>
      </g>
     </g>
     <g id="text_3">
      <!-- 100 -->
      <g transform="translate(82.46112 101.230462)scale(0.07497 -0.07497)">
       <use xlink:href="#ArialMT-49"/>
       <use x="55.615234" xlink:href="#ArialMT-48"/>
       <use x="111.230469" xlink:href="#ArialMT-48"/>
      </g>
     </g>
    </g>
    <g id="xtick_4">
     <g id="line2d_4">
      <g>
       <use style="stroke:#000000;stroke-width:0.8;" x="114.882653" xlink:href="#m1b00f52a8d" y="91.36425"/>
      </g>
     </g>
     <g id="text_4">
      <!-- 1000 -->
      <g transform="translate(106.544583 101.230462)scale(0.07497 -0.07497)">
       <use xlink:href="#ArialMT-49"/>
       <use x="55.615234" xlink:href="#ArialMT-48"/>
       <use x="111.230469" xlink:href="#ArialMT-48"/>
       <use x="166.845703" xlink:href="#ArialMT-48"/>
      </g>
     </g>
    </g>
    <g id="xtick_5">
     <g id="line2d_5"/>
    </g>
    <g id="xtick_6">
     <g id="line2d_6"/>
    </g>
    <g id="xtick_7">
     <g id="line2d_7"/>
    </g>
    <g id="xtick_8">
     <g id="line2d_8"/>
    </g>
    <g id="xtick_9">
     <g id="line2d_9"/>
    </g>
    <g id="xtick_10">
     <g id="line2d_10"/>
    </g>
    <g id="xtick_11">
     <g id="line2d_11"/>
    </g>
    <g id="xtick_12">
     <g id="line2d_12"/>
    </g>
    <g id="xtick_13">
     <g id="line2d_13"/>
    </g>
    <g id="xtick_14">
     <g id="line2d_14"/>
    </g>
    <g id="xtick_15">
     <g id="line2d_15"/>
    </g>
    <g id="xtick_16">
     <g id="line2d_16"/>
    </g>
    <g id="xtick_17">
     <g id="line2d_17"/>
    </g>
    <g id="xtick_18">
     <g id="line2d_18"/>
    </g>
    <g id="xtick_19">
     <g id="line2d_19"/>
    </g>
    <g id="xtick_20">
     <g id="line2d_20"/>
    </g>
    <g id="xtick_21">
     <g id="line2d_21"/>
    </g>
    <g id="xtick_22">
     <g id="line2d_22"/>
    </g>
    <g id="xtick_23">
     <g id="line2d_23"/>
    </g>
    <g id="xtick_24">
     <g id="line2d_24"/>
    </g>
    <g id="xtick_25">
     <g id="line2d_25"/>
    </g>
    <g id="xtick_26">
     <g id="line2d_26"/>
    </g>
    <g id="xtick_27">
     <g id="line2d_27"/>
    </g>
    <g id="xtick_28">
     <g id="line2d_28"/>
    </g>
    <g id="xtick_29">
     <g id="line2d_29"/>
    </g>
    <g id="xtick_30">
     <g id="line2d_30"/>
    </g>
    <g id="xtick_31">
     <g id="line2d_31"/>
    </g>
    <g id="xtick_32">
     <g id="line2d_32"/>
    </g>
    <g id="xtick_33">
     <g id="line2d_33"/>
    </g>
    <g id="xtick_34">
     <g id="line2d_34"/>
    </g>
    <g id="text_5">
     <!-- rel. pMHC concentration -->
     <defs>
      <path d="M 6.5 0 
L 6.5 51.859375 
L 14.40625 51.859375 
L 14.40625 44 
Q 17.4375 49.515625 20 51.265625 
Q 22.5625 53.03125 25.640625 53.03125 
Q 30.078125 53.03125 34.671875 50.203125 
L 31.640625 42.046875 
Q 28.421875 43.953125 25.203125 43.953125 
Q 22.3125 43.953125 20.015625 42.21875 
Q 17.71875 40.484375 16.75 37.40625 
Q 15.28125 32.71875 15.28125 27.15625 
L 15.28125 0 
z
" id="ArialMT-114"/>
      <path d="M 42.09375 16.703125 
L 51.171875 15.578125 
Q 49.03125 7.625 43.21875 3.21875 
Q 37.40625 -1.171875 28.375 -1.171875 
Q 17 -1.171875 10.328125 5.828125 
Q 3.65625 12.84375 3.65625 25.484375 
Q 3.65625 38.578125 10.390625 45.796875 
Q 17.140625 53.03125 27.875 53.03125 
Q 38.28125 53.03125 44.875 45.953125 
Q 51.46875 38.875 51.46875 26.03125 
Q 51.46875 25.25 51.421875 23.6875 
L 12.75 23.6875 
Q 13.234375 15.140625 17.578125 10.59375 
Q 21.921875 6.0625 28.421875 6.0625 
Q 33.25 6.0625 36.671875 8.59375 
Q 40.09375 11.140625 42.09375 16.703125 
z
M 13.234375 30.90625 
L 42.1875 30.90625 
Q 41.609375 37.453125 38.875 40.71875 
Q 34.671875 45.796875 27.984375 45.796875 
Q 21.921875 45.796875 17.796875 41.75 
Q 13.671875 37.703125 13.234375 30.90625 
z
" id="ArialMT-101"/>
      <path d="M 6.390625 0 
L 6.390625 71.578125 
L 15.1875 71.578125 
L 15.1875 0 
z
" id="ArialMT-108"/>
      <path d="M 9.078125 0 
L 9.078125 10.015625 
L 19.09375 10.015625 
L 19.09375 0 
z
" id="ArialMT-46"/>
      <path id="ArialMT-32"/>
      <path d="M 6.59375 -19.875 
L 6.59375 51.859375 
L 14.59375 51.859375 
L 14.59375 45.125 
Q 17.4375 49.078125 21 51.046875 
Q 24.5625 53.03125 29.640625 53.03125 
Q 36.28125 53.03125 41.359375 49.609375 
Q 46.4375 46.1875 49.015625 39.953125 
Q 51.609375 33.734375 51.609375 26.3125 
Q 51.609375 18.359375 48.75 11.984375 
Q 45.90625 5.609375 40.453125 2.21875 
Q 35.015625 -1.171875 29 -1.171875 
Q 24.609375 -1.171875 21.109375 0.6875 
Q 17.625 2.546875 15.375 5.375 
L 15.375 -19.875 
z
M 14.546875 25.640625 
Q 14.546875 15.625 18.59375 10.84375 
Q 22.65625 6.0625 28.421875 6.0625 
Q 34.28125 6.0625 38.453125 11.015625 
Q 42.625 15.96875 42.625 26.375 
Q 42.625 36.28125 38.546875 41.203125 
Q 34.46875 46.140625 28.8125 46.140625 
Q 23.1875 46.140625 18.859375 40.890625 
Q 14.546875 35.640625 14.546875 25.640625 
z
" id="ArialMT-112"/>
      <path d="M 7.421875 0 
L 7.421875 71.578125 
L 21.6875 71.578125 
L 38.625 20.90625 
Q 40.96875 13.8125 42.046875 10.296875 
Q 43.265625 14.203125 45.84375 21.78125 
L 62.984375 71.578125 
L 75.734375 71.578125 
L 75.734375 0 
L 66.609375 0 
L 66.609375 59.90625 
L 45.796875 0 
L 37.25 0 
L 16.546875 60.9375 
L 16.546875 0 
z
" id="ArialMT-77"/>
      <path d="M 8.015625 0 
L 8.015625 71.578125 
L 17.484375 71.578125 
L 17.484375 42.1875 
L 54.6875 42.1875 
L 54.6875 71.578125 
L 64.15625 71.578125 
L 64.15625 0 
L 54.6875 0 
L 54.6875 33.734375 
L 17.484375 33.734375 
L 17.484375 0 
z
" id="ArialMT-72"/>
      <path d="M 58.796875 25.09375 
L 68.265625 22.703125 
Q 65.28125 11.03125 57.546875 4.90625 
Q 49.8125 -1.21875 38.625 -1.21875 
Q 27.046875 -1.21875 19.796875 3.484375 
Q 12.546875 8.203125 8.765625 17.140625 
Q 4.984375 26.078125 4.984375 36.328125 
Q 4.984375 47.515625 9.25 55.828125 
Q 13.53125 64.15625 21.40625 68.46875 
Q 29.296875 72.796875 38.765625 72.796875 
Q 49.515625 72.796875 56.828125 67.328125 
Q 64.15625 61.859375 67.046875 51.953125 
L 57.71875 49.75 
Q 55.21875 57.5625 50.484375 61.125 
Q 45.75 64.703125 38.578125 64.703125 
Q 30.328125 64.703125 24.78125 60.734375 
Q 19.234375 56.78125 16.984375 50.109375 
Q 14.75 43.453125 14.75 36.375 
Q 14.75 27.25 17.40625 20.4375 
Q 20.0625 13.625 25.671875 10.25 
Q 31.296875 6.890625 37.84375 6.890625 
Q 45.796875 6.890625 51.3125 11.46875 
Q 56.84375 16.0625 58.796875 25.09375 
z
" id="ArialMT-67"/>
      <path d="M 40.4375 19 
L 49.078125 17.875 
Q 47.65625 8.9375 41.8125 3.875 
Q 35.984375 -1.171875 27.484375 -1.171875 
Q 16.84375 -1.171875 10.375 5.78125 
Q 3.90625 12.75 3.90625 25.734375 
Q 3.90625 34.125 6.6875 40.421875 
Q 9.46875 46.734375 15.15625 49.875 
Q 20.84375 53.03125 27.546875 53.03125 
Q 35.984375 53.03125 41.359375 48.75 
Q 46.734375 44.484375 48.25 36.625 
L 39.703125 35.296875 
Q 38.484375 40.53125 35.375 43.15625 
Q 32.28125 45.796875 27.875 45.796875 
Q 21.234375 45.796875 17.078125 41.03125 
Q 12.9375 36.28125 12.9375 25.984375 
Q 12.9375 15.53125 16.9375 10.796875 
Q 20.953125 6.0625 27.390625 6.0625 
Q 32.5625 6.0625 36.03125 9.234375 
Q 39.5 12.40625 40.4375 19 
z
" id="ArialMT-99"/>
      <path d="M 3.328125 25.921875 
Q 3.328125 40.328125 11.328125 47.265625 
Q 18.015625 53.03125 27.640625 53.03125 
Q 38.328125 53.03125 45.109375 46.015625 
Q 51.90625 39.015625 51.90625 26.65625 
Q 51.90625 16.65625 48.90625 10.90625 
Q 45.90625 5.171875 40.15625 2 
Q 34.421875 -1.171875 27.640625 -1.171875 
Q 16.75 -1.171875 10.03125 5.8125 
Q 3.328125 12.796875 3.328125 25.921875 
z
M 12.359375 25.921875 
Q 12.359375 15.96875 16.703125 11.015625 
Q 21.046875 6.0625 27.640625 6.0625 
Q 34.1875 6.0625 38.53125 11.03125 
Q 42.875 16.015625 42.875 26.21875 
Q 42.875 35.84375 38.5 40.796875 
Q 34.125 45.75 27.640625 45.75 
Q 21.046875 45.75 16.703125 40.8125 
Q 12.359375 35.890625 12.359375 25.921875 
z
" id="ArialMT-111"/>
      <path d="M 6.59375 0 
L 6.59375 51.859375 
L 14.5 51.859375 
L 14.5 44.484375 
Q 20.21875 53.03125 31 53.03125 
Q 35.6875 53.03125 39.625 51.34375 
Q 43.5625 49.65625 45.515625 46.921875 
Q 47.46875 44.1875 48.25 40.4375 
Q 48.734375 37.984375 48.734375 31.890625 
L 48.734375 0 
L 39.9375 0 
L 39.9375 31.546875 
Q 39.9375 36.921875 38.90625 39.578125 
Q 37.890625 42.234375 35.28125 43.8125 
Q 32.671875 45.40625 29.15625 45.40625 
Q 23.53125 45.40625 19.453125 41.84375 
Q 15.375 38.28125 15.375 28.328125 
L 15.375 0 
z
" id="ArialMT-110"/>
      <path d="M 25.78125 7.859375 
L 27.046875 0.09375 
Q 23.34375 -0.6875 20.40625 -0.6875 
Q 15.625 -0.6875 12.984375 0.828125 
Q 10.359375 2.34375 9.28125 4.8125 
Q 8.203125 7.28125 8.203125 15.1875 
L 8.203125 45.015625 
L 1.765625 45.015625 
L 1.765625 51.859375 
L 8.203125 51.859375 
L 8.203125 64.703125 
L 16.9375 69.96875 
L 16.9375 51.859375 
L 25.78125 51.859375 
L 25.78125 45.015625 
L 16.9375 45.015625 
L 16.9375 14.703125 
Q 16.9375 10.9375 17.40625 9.859375 
Q 17.875 8.796875 18.921875 8.15625 
Q 19.96875 7.515625 21.921875 7.515625 
Q 23.390625 7.515625 25.78125 7.859375 
z
" id="ArialMT-116"/>
      <path d="M 40.4375 6.390625 
Q 35.546875 2.25 31.03125 0.53125 
Q 26.515625 -1.171875 21.34375 -1.171875 
Q 12.796875 -1.171875 8.203125 3 
Q 3.609375 7.171875 3.609375 13.671875 
Q 3.609375 17.484375 5.34375 20.625 
Q 7.078125 23.78125 9.890625 25.6875 
Q 12.703125 27.59375 16.21875 28.5625 
Q 18.796875 29.25 24.03125 29.890625 
Q 34.671875 31.15625 39.703125 32.90625 
Q 39.75 34.71875 39.75 35.203125 
Q 39.75 40.578125 37.25 42.78125 
Q 33.890625 45.75 27.25 45.75 
Q 21.046875 45.75 18.09375 43.578125 
Q 15.140625 41.40625 13.71875 35.890625 
L 5.125 37.0625 
Q 6.296875 42.578125 8.984375 45.96875 
Q 11.671875 49.359375 16.75 51.1875 
Q 21.828125 53.03125 28.515625 53.03125 
Q 35.15625 53.03125 39.296875 51.46875 
Q 43.453125 49.90625 45.40625 47.53125 
Q 47.359375 45.171875 48.140625 41.546875 
Q 48.578125 39.3125 48.578125 33.453125 
L 48.578125 21.734375 
Q 48.578125 9.46875 49.140625 6.21875 
Q 49.703125 2.984375 51.375 0 
L 42.1875 0 
Q 40.828125 2.734375 40.4375 6.390625 
z
M 39.703125 26.03125 
Q 34.90625 24.078125 25.34375 22.703125 
Q 19.921875 21.921875 17.671875 20.9375 
Q 15.4375 19.96875 14.203125 18.09375 
Q 12.984375 16.21875 12.984375 13.921875 
Q 12.984375 10.40625 15.640625 8.0625 
Q 18.3125 5.71875 23.4375 5.71875 
Q 28.515625 5.71875 32.46875 7.9375 
Q 36.421875 10.15625 38.28125 14.015625 
Q 39.703125 17 39.703125 22.796875 
z
" id="ArialMT-97"/>
      <path d="M 6.640625 61.46875 
L 6.640625 71.578125 
L 15.4375 71.578125 
L 15.4375 61.46875 
z
M 6.640625 0 
L 6.640625 51.859375 
L 15.4375 51.859375 
L 15.4375 0 
z
" id="ArialMT-105"/>
     </defs>
     <g transform="translate(35.215995 109.678072)scale(0.07497 -0.07497)">
      <use xlink:href="#ArialMT-114"/>
      <use x="33.300781" xlink:href="#ArialMT-101"/>
      <use x="88.916016" xlink:href="#ArialMT-108"/>
      <use x="111.132812" xlink:href="#ArialMT-46"/>
      <use x="138.916016" xlink:href="#ArialMT-32"/>
      <use x="166.699219" xlink:href="#ArialMT-112"/>
      <use x="222.314453" xlink:href="#ArialMT-77"/>
      <use x="305.615234" xlink:href="#ArialMT-72"/>
      <use x="377.832031" xlink:href="#ArialMT-67"/>
      <use x="450.048828" xlink:href="#ArialMT-32"/>
      <use x="477.832031" xlink:href="#ArialMT-99"/>
      <use x="527.832031" xlink:href="#ArialMT-111"/>
      <use x="583.447266" xlink:href="#ArialMT-110"/>
      <use x="639.0625" xlink:href="#ArialMT-99"/>
      <use x="689.0625" xlink:href="#ArialMT-101"/>
      <use x="744.677734" xlink:href="#ArialMT-110"/>
      <use x="800.292969" xlink:href="#ArialMT-116"/>
      <use x="828.076172" xlink:href="#ArialMT-114"/>
      <use x="861.376953" xlink:href="#ArialMT-97"/>
      <use x="916.992188" xlink:href="#ArialMT-116"/>
      <use x="944.775391" xlink:href="#ArialMT-105"/>
      <use x="966.992188" xlink:href="#ArialMT-111"/>
      <use x="1022.607422" xlink:href="#ArialMT-110"/>
     </g>
     <!-- for half max. response -->
     <defs>
      <path d="M 8.6875 0 
L 8.6875 45.015625 
L 0.921875 45.015625 
L 0.921875 51.859375 
L 8.6875 51.859375 
L 8.6875 57.375 
Q 8.6875 62.59375 9.625 65.140625 
Q 10.890625 68.5625 14.078125 70.671875 
Q 17.28125 72.796875 23.046875 72.796875 
Q 26.765625 72.796875 31.25 71.921875 
L 29.9375 64.265625 
Q 27.203125 64.75 24.75 64.75 
Q 20.75 64.75 19.09375 63.03125 
Q 17.4375 61.328125 17.4375 56.640625 
L 17.4375 51.859375 
L 27.546875 51.859375 
L 27.546875 45.015625 
L 17.4375 45.015625 
L 17.4375 0 
z
" id="ArialMT-102"/>
      <path d="M 6.59375 0 
L 6.59375 71.578125 
L 15.375 71.578125 
L 15.375 45.90625 
Q 21.53125 53.03125 30.90625 53.03125 
Q 36.671875 53.03125 40.921875 50.75 
Q 45.171875 48.484375 47 44.484375 
Q 48.828125 40.484375 48.828125 32.859375 
L 48.828125 0 
L 40.046875 0 
L 40.046875 32.859375 
Q 40.046875 39.453125 37.1875 42.453125 
Q 34.328125 45.453125 29.109375 45.453125 
Q 25.203125 45.453125 21.75 43.421875 
Q 18.3125 41.40625 16.84375 37.9375 
Q 15.375 34.46875 15.375 28.375 
L 15.375 0 
z
" id="ArialMT-104"/>
      <path d="M 6.59375 0 
L 6.59375 51.859375 
L 14.453125 51.859375 
L 14.453125 44.578125 
Q 16.890625 48.390625 20.9375 50.703125 
Q 25 53.03125 30.171875 53.03125 
Q 35.9375 53.03125 39.625 50.640625 
Q 43.3125 48.25 44.828125 43.953125 
Q 50.984375 53.03125 60.84375 53.03125 
Q 68.5625 53.03125 72.703125 48.75 
Q 76.859375 44.484375 76.859375 35.59375 
L 76.859375 0 
L 68.109375 0 
L 68.109375 32.671875 
Q 68.109375 37.9375 67.25 40.25 
Q 66.40625 42.578125 64.15625 43.984375 
Q 61.921875 45.40625 58.890625 45.40625 
Q 53.421875 45.40625 49.796875 41.765625 
Q 46.1875 38.140625 46.1875 30.125 
L 46.1875 0 
L 37.40625 0 
L 37.40625 33.6875 
Q 37.40625 39.546875 35.25 42.46875 
Q 33.109375 45.40625 28.21875 45.40625 
Q 24.515625 45.40625 21.359375 43.453125 
Q 18.21875 41.5 16.796875 37.734375 
Q 15.375 33.984375 15.375 26.90625 
L 15.375 0 
z
" id="ArialMT-109"/>
      <path d="M 0.734375 0 
L 19.671875 26.953125 
L 2.15625 51.859375 
L 13.140625 51.859375 
L 21.09375 39.703125 
Q 23.34375 36.234375 24.703125 33.890625 
Q 26.859375 37.109375 28.65625 39.59375 
L 37.40625 51.859375 
L 47.90625 51.859375 
L 29.984375 27.4375 
L 49.265625 0 
L 38.484375 0 
L 27.828125 16.109375 
L 25 20.453125 
L 11.375 0 
z
" id="ArialMT-120"/>
      <path d="M 3.078125 15.484375 
L 11.765625 16.84375 
Q 12.5 11.625 15.84375 8.84375 
Q 19.1875 6.0625 25.203125 6.0625 
Q 31.25 6.0625 34.171875 8.515625 
Q 37.109375 10.984375 37.109375 14.3125 
Q 37.109375 17.28125 34.515625 19 
Q 32.71875 20.171875 25.53125 21.96875 
Q 15.875 24.421875 12.140625 26.203125 
Q 8.40625 27.984375 6.46875 31.125 
Q 4.546875 34.28125 4.546875 38.09375 
Q 4.546875 41.546875 6.125 44.5 
Q 7.71875 47.46875 10.453125 49.421875 
Q 12.5 50.921875 16.03125 51.96875 
Q 19.578125 53.03125 23.640625 53.03125 
Q 29.734375 53.03125 34.34375 51.265625 
Q 38.96875 49.515625 41.15625 46.5 
Q 43.359375 43.5 44.1875 38.484375 
L 35.59375 37.3125 
Q 35.015625 41.3125 32.203125 43.546875 
Q 29.390625 45.796875 24.265625 45.796875 
Q 18.21875 45.796875 15.625 43.796875 
Q 13.03125 41.796875 13.03125 39.109375 
Q 13.03125 37.40625 14.109375 36.03125 
Q 15.1875 34.625 17.484375 33.6875 
Q 18.796875 33.203125 25.25 31.453125 
Q 34.578125 28.953125 38.25 27.359375 
Q 41.9375 25.78125 44.03125 22.75 
Q 46.140625 19.734375 46.140625 15.234375 
Q 46.140625 10.84375 43.578125 6.953125 
Q 41.015625 3.078125 36.171875 0.953125 
Q 31.34375 -1.171875 25.25 -1.171875 
Q 15.140625 -1.171875 9.84375 3.03125 
Q 4.546875 7.234375 3.078125 15.484375 
z
" id="ArialMT-115"/>
     </defs>
     <g transform="translate(38.547474 117.717199)scale(0.07497 -0.07497)">
      <use xlink:href="#ArialMT-102"/>
      <use x="27.783203" xlink:href="#ArialMT-111"/>
      <use x="83.398438" xlink:href="#ArialMT-114"/>
      <use x="116.699219" xlink:href="#ArialMT-32"/>
      <use x="144.482422" xlink:href="#ArialMT-104"/>
      <use x="200.097656" xlink:href="#ArialMT-97"/>
      <use x="255.712891" xlink:href="#ArialMT-108"/>
      <use x="277.929688" xlink:href="#ArialMT-102"/>
      <use x="305.712891" xlink:href="#ArialMT-32"/>
      <use x="333.496094" xlink:href="#ArialMT-109"/>
      <use x="416.796875" xlink:href="#ArialMT-97"/>
      <use x="472.412109" xlink:href="#ArialMT-120"/>
      <use x="522.412109" xlink:href="#ArialMT-46"/>
      <use x="550.195312" xlink:href="#ArialMT-32"/>
      <use x="577.978516" xlink:href="#ArialMT-114"/>
      <use x="611.279297" xlink:href="#ArialMT-101"/>
      <use x="666.894531" xlink:href="#ArialMT-115"/>
      <use x="716.894531" xlink:href="#ArialMT-112"/>
      <use x="772.509766" xlink:href="#ArialMT-111"/>
      <use x="828.125" xlink:href="#ArialMT-110"/>
      <use x="883.740234" xlink:href="#ArialMT-115"/>
      <use x="933.740234" xlink:href="#ArialMT-101"/>
     </g>
    </g>
   </g>
   <g id="matplotlib.axis_2">
    <g id="ytick_1">
     <g id="line2d_35">
      <defs>
       <path d="M 2 0 
L -2 -0 
" id="m3616f115bd" style="stroke:#000000;stroke-width:0.8;"/>
      </defs>
      <g>
       <use style="stroke:#000000;stroke-width:0.8;" x="28.501364" xlink:href="#m3616f115bd" y="81.864199"/>
      </g>
     </g>
     <g id="text_6">
      <!-- 1 -->
      <g transform="translate(19.832329 84.547305)scale(0.07497 -0.07497)">
       <use xlink:href="#ArialMT-49"/>
      </g>
     </g>
    </g>
    <g id="ytick_2">
     <g id="line2d_36">
      <g>
       <use style="stroke:#000000;stroke-width:0.8;" x="28.501364" xlink:href="#m3616f115bd" y="50.305712"/>
      </g>
     </g>
     <g id="text_7">
      <!-- 10 -->
      <g transform="translate(15.663294 52.988818)scale(0.07497 -0.07497)">
       <use xlink:href="#ArialMT-49"/>
       <use x="55.615234" xlink:href="#ArialMT-48"/>
      </g>
     </g>
    </g>
    <g id="ytick_3">
     <g id="line2d_37">
      <g>
       <use style="stroke:#000000;stroke-width:0.8;" x="28.501364" xlink:href="#m3616f115bd" y="18.747225"/>
      </g>
     </g>
     <g id="text_8">
      <!-- 100 -->
      <g transform="translate(11.494259 21.430331)scale(0.07497 -0.07497)">
       <use xlink:href="#ArialMT-49"/>
       <use x="55.615234" xlink:href="#ArialMT-48"/>
       <use x="111.230469" xlink:href="#ArialMT-48"/>
      </g>
     </g>
    </g>
    <g id="ytick_4">
     <g id="line2d_38"/>
    </g>
    <g id="ytick_5">
     <g id="line2d_39"/>
    </g>
    <g id="ytick_6">
     <g id="line2d_40"/>
    </g>
    <g id="ytick_7">
     <g id="line2d_41"/>
    </g>
    <g id="ytick_8">
     <g id="line2d_42"/>
    </g>
    <g id="ytick_9">
     <g id="line2d_43"/>
    </g>
    <g id="ytick_10">
     <g id="line2d_44"/>
    </g>
    <g id="ytick_11">
     <g id="line2d_45"/>
    </g>
    <g id="ytick_12">
     <g id="line2d_46"/>
    </g>
    <g id="ytick_13">
     <g id="line2d_47"/>
    </g>
    <g id="ytick_14">
     <g id="line2d_48"/>
    </g>
    <g id="ytick_15">
     <g id="line2d_49"/>
    </g>
    <g id="ytick_16">
     <g id="line2d_50"/>
    </g>
    <g id="ytick_17">
     <g id="line2d_51"/>
    </g>
    <g id="ytick_18">
     <g id="line2d_52"/>
    </g>
    <g id="ytick_19">
     <g id="line2d_53"/>
    </g>
    <g id="ytick_20">
     <g id="line2d_54"/>
    </g>
    <g id="ytick_21">
     <g id="line2d_55"/>
    </g>
    <g id="ytick_22">
     <g id="line2d_56"/>
    </g>
    <g id="ytick_23">
     <g id="line2d_57"/>
    </g>
    <g id="ytick_24">
     <g id="line2d_58"/>
    </g>
    <g id="ytick_25">
     <g id="line2d_59"/>
    </g>
    <g id="ytick_26">
     <g id="line2d_60"/>
    </g>
    <g id="text_9">
     <!-- Fold expansion -->
     <defs>
      <path d="M 8.203125 0 
L 8.203125 71.578125 
L 56.5 71.578125 
L 56.5 63.140625 
L 17.671875 63.140625 
L 17.671875 40.96875 
L 51.265625 40.96875 
L 51.265625 32.515625 
L 17.671875 32.515625 
L 17.671875 0 
z
" id="ArialMT-70"/>
      <path d="M 40.234375 0 
L 40.234375 6.546875 
Q 35.296875 -1.171875 25.734375 -1.171875 
Q 19.53125 -1.171875 14.328125 2.25 
Q 9.125 5.671875 6.265625 11.796875 
Q 3.421875 17.921875 3.421875 25.875 
Q 3.421875 33.640625 6 39.96875 
Q 8.59375 46.296875 13.765625 49.65625 
Q 18.953125 53.03125 25.34375 53.03125 
Q 30.03125 53.03125 33.6875 51.046875 
Q 37.359375 49.078125 39.65625 45.90625 
L 39.65625 71.578125 
L 48.390625 71.578125 
L 48.390625 0 
z
M 12.453125 25.875 
Q 12.453125 15.921875 16.640625 10.984375 
Q 20.84375 6.0625 26.5625 6.0625 
Q 32.328125 6.0625 36.34375 10.765625 
Q 40.375 15.484375 40.375 25.140625 
Q 40.375 35.796875 36.265625 40.765625 
Q 32.171875 45.75 26.171875 45.75 
Q 20.3125 45.75 16.375 40.96875 
Q 12.453125 36.1875 12.453125 25.875 
z
" id="ArialMT-100"/>
     </defs>
     <g transform="translate(8.50423 72.948398)rotate(-90)scale(0.07497 -0.07497)">
      <use xlink:href="#ArialMT-70"/>
      <use x="61.083984" xlink:href="#ArialMT-111"/>
      <use x="116.699219" xlink:href="#ArialMT-108"/>
      <use x="138.916016" xlink:href="#ArialMT-100"/>
      <use x="194.53125" xlink:href="#ArialMT-32"/>
      <use x="222.314453" xlink:href="#ArialMT-101"/>
      <use x="277.929688" xlink:href="#ArialMT-120"/>
      <use x="327.929688" xlink:href="#ArialMT-112"/>
      <use x="383.544922" xlink:href="#ArialMT-97"/>
      <use x="439.160156" xlink:href="#ArialMT-110"/>
      <use x="494.775391" xlink:href="#ArialMT-115"/>
      <use x="544.775391" xlink:href="#ArialMT-105"/>
      <use x="566.992188" xlink:href="#ArialMT-111"/>
      <use x="622.607422" xlink:href="#ArialMT-110"/>
     </g>
    </g>
   </g>
   <g id="PathCollection_1">
    <defs>
     <path d="M 0 1.75 
C 0.464105 1.75 0.909265 1.565609 1.237437 1.237437 
C 1.565609 0.909265 1.75 0.464105 1.75 0 
C 1.75 -0.464105 1.565609 -0.909265 1.237437 -1.237437 
C 0.909265 -1.565609 0.464105 -1.75 0 -1.75 
C -0.464105 -1.75 -0.909265 -1.565609 -1.237437 -1.237437 
C -1.565609 -0.909265 -1.75 -0.464105 -1.75 0 
C -1.75 0.464105 -1.565609 0.909265 -1.237437 1.237437 
C -0.909265 1.565609 -0.464105 1.75 0 1.75 
z
" id="C0_0_3a33bd5ad5"/>
    </defs>
    <g clip-path="url(#pc79977ba1d)">
     <use style="fill:#ff7f0e;stroke:#ff7f0e;stroke-width:0.8;" x="36.378711" xlink:href="#C0_0_3a33bd5ad5" y="7.272181"/>
    </g>
    <g clip-path="url(#pc79977ba1d)">
     <use style="fill:#2ca02c;stroke:#2ca02c;stroke-width:0.8;" x="47.666629" xlink:href="#C0_0_3a33bd5ad5" y="23.308799"/>
    </g>
    <g clip-path="url(#pc79977ba1d)">
     <use style="fill:#d62728;stroke:#d62728;stroke-width:0.8;" x="52.414027" xlink:href="#C0_0_3a33bd5ad5" y="32.516947"/>
    </g>
    <g clip-path="url(#pc79977ba1d)">
     <use style="fill:#9467bd;stroke:#9467bd;stroke-width:0.8;" x="69.414507" xlink:href="#C0_0_3a33bd5ad5" y="44.938898"/>
    </g>
    <g clip-path="url(#pc79977ba1d)">
     <use style="fill:#8c564b;stroke:#8c564b;stroke-width:0.8;" x="84.774282" xlink:href="#C0_0_3a33bd5ad5" y="54.3373"/>
    </g>
    <g clip-path="url(#pc79977ba1d)">
     <use style="fill:#e377c2;stroke:#e377c2;stroke-width:0.8;" x="110.499749" xlink:href="#C0_0_3a33bd5ad5" y="79.337642"/>
    </g>
   </g>
   <g id="line2d_61">
    <path clip-path="url(#pc79977ba1d)" d="M 23.29472 3.051959 
L 25.430882 4.522028 
L 27.567044 6.064029 
L 29.703205 7.671183 
L 31.839367 9.336629 
L 33.975529 11.053654 
L 36.111691 12.815866 
L 38.247852 14.61731 
L 40.384014 16.452545 
L 42.520176 18.316673 
L 44.656337 20.205332 
L 46.792499 22.114683 
L 48.928661 24.041361 
L 51.064822 25.982437 
L 53.200984 27.935363 
L 55.337146 29.897918 
L 57.473307 31.868159 
L 59.609469 33.844373 
L 61.745631 35.825025 
L 63.881793 37.808721 
L 66.017954 39.79416 
L 68.154116 41.780095 
L 70.290278 43.765298 
L 72.426439 45.748514 
L 74.562601 47.728428 
L 76.698763 49.703622 
L 78.834924 51.672531 
L 80.971086 53.6334 
L 83.107248 55.584238 
L 85.243409 57.522766 
L 87.379571 59.446365 
L 89.515733 61.352028 
L 91.651894 63.236303 
L 93.788056 65.095252 
L 95.924218 66.924414 
L 98.06038 68.718783 
L 100.196541 70.472818 
L 102.332703 72.180473 
L 104.468865 73.835285 
L 106.605026 75.430495 
L 108.741188 76.95924 
L 110.87735 78.414788 
L 113.013511 79.790823 
L 115.149673 81.081756 
L 117.285835 82.283039 
L 119.421996 83.391438 
L 121.558158 84.405248 
L 123.69432 85.324409 
L 125.830482 86.150507 
L 127.966643 86.886664 
" style="fill:none;stroke:#1f77b4;stroke-linecap:round;stroke-width:1.3;"/>
   </g>
   <g id="patch_3">
    <path d="M 28.501364 91.36425 
L 28.501364 3.69 
" style="fill:none;stroke:#000000;stroke-linecap:square;stroke-linejoin:miter;"/>
   </g>
   <g id="patch_4">
    <path d="M 28.501364 91.36425 
L 122.76 91.36425 
" style="fill:none;stroke:#000000;stroke-linecap:square;stroke-linejoin:miter;"/>
   </g>
   <g id="text_10">
    <!-- A -->
    <defs>
     <path d="M 71.828125 0 
L 56.109375 0 
L 49.859375 16.265625 
L 21.234375 16.265625 
L 15.328125 0 
L 0 0 
L 27.875 71.578125 
L 43.171875 71.578125 
z
M 45.21875 28.328125 
L 35.359375 54.890625 
L 25.6875 28.328125 
z
" id="Arial-BoldMT-65"/>
    </defs>
    <g transform="translate(0.223773 8.950455)scale(0.1 -0.1)">
     <use xlink:href="#Arial-BoldMT-65"/>
    </g>
   </g>
   <g id="legend_1">
    <g id="line2d_62">
     <path d="M 32.249864 76.64553 
L 41.621114 76.64553 
" style="fill:none;stroke:#1f77b4;stroke-linecap:round;stroke-width:1.3;"/>
    </g>
    <g id="line2d_63"/>
    <g id="text_11">
     <!-- Model -->
     <g transform="translate(45.369614 79.26948)scale(0.07497 -0.07497)">
      <use xlink:href="#ArialMT-77"/>
      <use x="83.300781" xlink:href="#ArialMT-111"/>
      <use x="138.916016" xlink:href="#ArialMT-100"/>
      <use x="194.53125" xlink:href="#ArialMT-101"/>
      <use x="250.146484" xlink:href="#ArialMT-108"/>
     </g>
    </g>
    <g id="PathCollection_2">
     <defs>
      <path d="M 0 1.3125 
C 0.348079 1.3125 0.681949 1.174207 0.928078 0.928078 
C 1.174207 0.681949 1.3125 0.348079 1.3125 0 
C 1.3125 -0.348079 1.174207 -0.681949 0.928078 -0.928078 
C 0.681949 -1.174207 0.348079 -1.3125 0 -1.3125 
C -0.348079 -1.3125 -0.681949 -1.174207 -0.928078 -0.928078 
C -1.174207 -0.681949 -1.3125 -0.348079 -1.3125 0 
C -1.3125 0.348079 -1.174207 0.681949 -0.928078 0.928078 
C -0.681949 1.174207 -0.348079 1.3125 0 1.3125 
z
" id="m20eda3b9ac" style="stroke:#333333;stroke-width:0.8;"/>
     </defs>
     <g>
      <use style="fill:#333333;stroke:#333333;stroke-width:0.8;" x="36.935489" xlink:href="#m20eda3b9ac" y="84.157759"/>
     </g>
    </g>
    <g id="text_12">
     <!-- Experiment -->
     <defs>
      <path d="M 7.90625 0 
L 7.90625 71.578125 
L 59.671875 71.578125 
L 59.671875 63.140625 
L 17.390625 63.140625 
L 17.390625 41.21875 
L 56.984375 41.21875 
L 56.984375 32.8125 
L 17.390625 32.8125 
L 17.390625 8.453125 
L 61.328125 8.453125 
L 61.328125 0 
z
" id="ArialMT-69"/>
     </defs>
     <g transform="translate(45.369614 86.125721)scale(0.07497 -0.07497)">
      <use xlink:href="#ArialMT-69"/>
      <use x="66.699219" xlink:href="#ArialMT-120"/>
      <use x="116.699219" xlink:href="#ArialMT-112"/>
      <use x="172.314453" xlink:href="#ArialMT-101"/>
      <use x="227.929688" xlink:href="#ArialMT-114"/>
      <use x="261.230469" xlink:href="#ArialMT-105"/>
      <use x="283.447266" xlink:href="#ArialMT-109"/>
      <use x="366.748047" xlink:href="#ArialMT-101"/>
      <use x="422.363281" xlink:href="#ArialMT-110"/>
      <use x="477.978516" xlink:href="#ArialMT-116"/>
     </g>
    </g>
   </g>
  </g>
  <g id="axes_2">
   <g id="patch_5">
    <path d="M 150.451364 91.36425 
L 244.71 91.36425 
L 244.71 3.69 
L 150.451364 3.69 
z
" style="fill:#ffffff;"/>
   </g>
   <g id="matplotlib.axis_3">
    <g id="xtick_35">
     <g id="line2d_64">
      <g>
       <use style="stroke:#000000;stroke-width:0.8;" x="154.735847" xlink:href="#m1b00f52a8d" y="91.36425"/>
      </g>
     </g>
     <g id="text_13">
      <!-- 4 -->
      <defs>
       <path d="M 32.328125 0 
L 32.328125 17.140625 
L 1.265625 17.140625 
L 1.265625 25.203125 
L 33.9375 71.578125 
L 41.109375 71.578125 
L 41.109375 25.203125 
L 50.78125 25.203125 
L 50.78125 17.140625 
L 41.109375 17.140625 
L 41.109375 0 
z
M 32.328125 25.203125 
L 32.328125 57.46875 
L 9.90625 25.203125 
z
" id="ArialMT-52"/>
      </defs>
      <g transform="translate(152.65133 101.230462)scale(0.07497 -0.07497)">
       <use xlink:href="#ArialMT-52"/>
      </g>
     </g>
    </g>
    <g id="xtick_36">
     <g id="line2d_65">
      <g>
       <use style="stroke:#000000;stroke-width:0.8;" x="187.379531" xlink:href="#m1b00f52a8d" y="91.36425"/>
      </g>
     </g>
     <g id="text_14">
      <!-- 6 -->
      <defs>
       <path d="M 49.75 54.046875 
L 41.015625 53.375 
Q 39.84375 58.546875 37.703125 60.890625 
Q 34.125 64.65625 28.90625 64.65625 
Q 24.703125 64.65625 21.53125 62.3125 
Q 17.390625 59.28125 14.984375 53.46875 
Q 12.59375 47.65625 12.5 36.921875 
Q 15.671875 41.75 20.265625 44.09375 
Q 24.859375 46.4375 29.890625 46.4375 
Q 38.671875 46.4375 44.84375 39.96875 
Q 51.03125 33.5 51.03125 23.25 
Q 51.03125 16.5 48.125 10.71875 
Q 45.21875 4.9375 40.140625 1.859375 
Q 35.0625 -1.21875 28.609375 -1.21875 
Q 17.625 -1.21875 10.6875 6.859375 
Q 3.765625 14.9375 3.765625 33.5 
Q 3.765625 54.25 11.421875 63.671875 
Q 18.109375 71.875 29.4375 71.875 
Q 37.890625 71.875 43.28125 67.140625 
Q 48.6875 62.40625 49.75 54.046875 
z
M 13.875 23.1875 
Q 13.875 18.65625 15.796875 14.5 
Q 17.71875 10.359375 21.1875 8.171875 
Q 24.65625 6 28.46875 6 
Q 34.03125 6 38.03125 10.484375 
Q 42.046875 14.984375 42.046875 22.703125 
Q 42.046875 30.125 38.078125 34.390625 
Q 34.125 38.671875 28.125 38.671875 
Q 22.171875 38.671875 18.015625 34.390625 
Q 13.875 30.125 13.875 23.1875 
z
" id="ArialMT-54"/>
      </defs>
      <g transform="translate(185.295013 101.230462)scale(0.07497 -0.07497)">
       <use xlink:href="#ArialMT-54"/>
      </g>
     </g>
    </g>
    <g id="xtick_37">
     <g id="line2d_66">
      <g>
       <use style="stroke:#000000;stroke-width:0.8;" x="220.023214" xlink:href="#m1b00f52a8d" y="91.36425"/>
      </g>
     </g>
     <g id="text_15">
      <!-- 8 -->
      <defs>
       <path d="M 17.671875 38.8125 
Q 12.203125 40.828125 9.5625 44.53125 
Q 6.9375 48.25 6.9375 53.421875 
Q 6.9375 61.234375 12.546875 66.546875 
Q 18.171875 71.875 27.484375 71.875 
Q 36.859375 71.875 42.578125 66.421875 
Q 48.296875 60.984375 48.296875 53.171875 
Q 48.296875 48.1875 45.671875 44.5 
Q 43.0625 40.828125 37.75 38.8125 
Q 44.34375 36.671875 47.78125 31.875 
Q 51.21875 27.09375 51.21875 20.453125 
Q 51.21875 11.28125 44.71875 5.03125 
Q 38.234375 -1.21875 27.640625 -1.21875 
Q 17.046875 -1.21875 10.546875 5.046875 
Q 4.046875 11.328125 4.046875 20.703125 
Q 4.046875 27.6875 7.59375 32.390625 
Q 11.140625 37.109375 17.671875 38.8125 
z
M 15.921875 53.71875 
Q 15.921875 48.640625 19.1875 45.40625 
Q 22.46875 42.1875 27.6875 42.1875 
Q 32.765625 42.1875 36.015625 45.375 
Q 39.265625 48.578125 39.265625 53.21875 
Q 39.265625 58.0625 35.90625 61.359375 
Q 32.5625 64.65625 27.59375 64.65625 
Q 22.5625 64.65625 19.234375 61.421875 
Q 15.921875 58.203125 15.921875 53.71875 
z
M 13.09375 20.65625 
Q 13.09375 16.890625 14.875 13.375 
Q 16.65625 9.859375 20.171875 7.921875 
Q 23.6875 6 27.734375 6 
Q 34.03125 6 38.125 10.046875 
Q 42.234375 14.109375 42.234375 20.359375 
Q 42.234375 26.703125 38.015625 30.859375 
Q 33.796875 35.015625 27.4375 35.015625 
Q 21.234375 35.015625 17.15625 30.90625 
Q 13.09375 26.8125 13.09375 20.65625 
z
" id="ArialMT-56"/>
      </defs>
      <g transform="translate(217.938697 101.230462)scale(0.07497 -0.07497)">
       <use xlink:href="#ArialMT-56"/>
      </g>
     </g>
    </g>
    <g id="text_16">
     <!-- Time in days -->
     <defs>
      <path d="M 25.921875 0 
L 25.921875 63.140625 
L 2.34375 63.140625 
L 2.34375 71.578125 
L 59.078125 71.578125 
L 59.078125 63.140625 
L 35.40625 63.140625 
L 35.40625 0 
z
" id="ArialMT-84"/>
      <path d="M 6.203125 -19.96875 
L 5.21875 -11.71875 
Q 8.109375 -12.5 10.25 -12.5 
Q 13.1875 -12.5 14.9375 -11.515625 
Q 16.703125 -10.546875 17.828125 -8.796875 
Q 18.65625 -7.46875 20.515625 -2.25 
Q 20.75 -1.515625 21.296875 -0.09375 
L 1.609375 51.859375 
L 11.078125 51.859375 
L 21.875 21.828125 
Q 23.96875 16.109375 25.640625 9.8125 
Q 27.15625 15.875 29.25 21.625 
L 40.328125 51.859375 
L 49.125 51.859375 
L 29.390625 -0.875 
Q 26.21875 -9.421875 24.46875 -12.640625 
Q 22.125 -17 19.09375 -19.015625 
Q 16.0625 -21.046875 11.859375 -21.046875 
Q 9.328125 -21.046875 6.203125 -19.96875 
z
" id="ArialMT-121"/>
     </defs>
     <g transform="translate(176.335472 109.586703)scale(0.07497 -0.07497)">
      <use xlink:href="#ArialMT-84"/>
      <use x="61.037109" xlink:href="#ArialMT-105"/>
      <use x="83.253906" xlink:href="#ArialMT-109"/>
      <use x="166.554688" xlink:href="#ArialMT-101"/>
      <use x="222.169922" xlink:href="#ArialMT-32"/>
      <use x="249.953125" xlink:href="#ArialMT-105"/>
      <use x="272.169922" xlink:href="#ArialMT-110"/>
      <use x="327.785156" xlink:href="#ArialMT-32"/>
      <use x="355.568359" xlink:href="#ArialMT-100"/>
      <use x="411.183594" xlink:href="#ArialMT-97"/>
      <use x="466.798828" xlink:href="#ArialMT-121"/>
      <use x="516.798828" xlink:href="#ArialMT-115"/>
     </g>
    </g>
   </g>
   <g id="matplotlib.axis_4">
    <g id="ytick_27">
     <g id="line2d_67">
      <g>
       <use style="stroke:#000000;stroke-width:0.8;" x="150.451364" xlink:href="#m3616f115bd" y="81.864199"/>
      </g>
     </g>
     <g id="text_17">
      <!-- 1 -->
      <g transform="translate(141.782329 84.547305)scale(0.07497 -0.07497)">
       <use xlink:href="#ArialMT-49"/>
      </g>
     </g>
    </g>
    <g id="ytick_28">
     <g id="line2d_68">
      <g>
       <use style="stroke:#000000;stroke-width:0.8;" x="150.451364" xlink:href="#m3616f115bd" y="50.305712"/>
      </g>
     </g>
     <g id="text_18">
      <!-- 10 -->
      <g transform="translate(137.613294 52.988818)scale(0.07497 -0.07497)">
       <use xlink:href="#ArialMT-49"/>
       <use x="55.615234" xlink:href="#ArialMT-48"/>
      </g>
     </g>
    </g>
    <g id="ytick_29">
     <g id="line2d_69">
      <g>
       <use style="stroke:#000000;stroke-width:0.8;" x="150.451364" xlink:href="#m3616f115bd" y="18.747225"/>
      </g>
     </g>
     <g id="text_19">
      <!-- 100 -->
      <g transform="translate(133.444259 21.430331)scale(0.07497 -0.07497)">
       <use xlink:href="#ArialMT-49"/>
       <use x="55.615234" xlink:href="#ArialMT-48"/>
       <use x="111.230469" xlink:href="#ArialMT-48"/>
      </g>
     </g>
    </g>
    <g id="ytick_30">
     <g id="line2d_70"/>
    </g>
    <g id="ytick_31">
     <g id="line2d_71"/>
    </g>
    <g id="ytick_32">
     <g id="line2d_72"/>
    </g>
    <g id="ytick_33">
     <g id="line2d_73"/>
    </g>
    <g id="ytick_34">
     <g id="line2d_74"/>
    </g>
    <g id="ytick_35">
     <g id="line2d_75"/>
    </g>
    <g id="ytick_36">
     <g id="line2d_76"/>
    </g>
    <g id="ytick_37">
     <g id="line2d_77"/>
    </g>
    <g id="ytick_38">
     <g id="line2d_78"/>
    </g>
    <g id="ytick_39">
     <g id="line2d_79"/>
    </g>
    <g id="ytick_40">
     <g id="line2d_80"/>
    </g>
    <g id="ytick_41">
     <g id="line2d_81"/>
    </g>
    <g id="ytick_42">
     <g id="line2d_82"/>
    </g>
    <g id="ytick_43">
     <g id="line2d_83"/>
    </g>
    <g id="ytick_44">
     <g id="line2d_84"/>
    </g>
    <g id="ytick_45">
     <g id="line2d_85"/>
    </g>
    <g id="ytick_46">
     <g id="line2d_86"/>
    </g>
    <g id="ytick_47">
     <g id="line2d_87"/>
    </g>
    <g id="ytick_48">
     <g id="line2d_88"/>
    </g>
    <g id="ytick_49">
     <g id="line2d_89"/>
    </g>
    <g id="ytick_50">
     <g id="line2d_90"/>
    </g>
    <g id="ytick_51">
     <g id="line2d_91"/>
    </g>
    <g id="ytick_52">
     <g id="line2d_92"/>
    </g>
    <g id="text_20">
     <!-- T cell number -->
     <defs>
      <path d="M 40.578125 0 
L 40.578125 7.625 
Q 34.515625 -1.171875 24.125 -1.171875 
Q 19.53125 -1.171875 15.546875 0.578125 
Q 11.578125 2.34375 9.640625 5 
Q 7.71875 7.671875 6.9375 11.53125 
Q 6.390625 14.109375 6.390625 19.734375 
L 6.390625 51.859375 
L 15.1875 51.859375 
L 15.1875 23.09375 
Q 15.1875 16.21875 15.71875 13.8125 
Q 16.546875 10.359375 19.234375 8.375 
Q 21.921875 6.390625 25.875 6.390625 
Q 29.828125 6.390625 33.296875 8.421875 
Q 36.765625 10.453125 38.203125 13.9375 
Q 39.65625 17.4375 39.65625 24.078125 
L 39.65625 51.859375 
L 48.4375 51.859375 
L 48.4375 0 
z
" id="ArialMT-117"/>
      <path d="M 14.703125 0 
L 6.546875 0 
L 6.546875 71.578125 
L 15.328125 71.578125 
L 15.328125 46.046875 
Q 20.90625 53.03125 29.546875 53.03125 
Q 34.328125 53.03125 38.59375 51.09375 
Q 42.875 49.171875 45.625 45.671875 
Q 48.390625 42.1875 49.953125 37.25 
Q 51.515625 32.328125 51.515625 26.703125 
Q 51.515625 13.375 44.921875 6.09375 
Q 38.328125 -1.171875 29.109375 -1.171875 
Q 19.921875 -1.171875 14.703125 6.5 
z
M 14.59375 26.3125 
Q 14.59375 17 17.140625 12.84375 
Q 21.296875 6.0625 28.375 6.0625 
Q 34.125 6.0625 38.328125 11.0625 
Q 42.53125 16.0625 42.53125 25.984375 
Q 42.53125 36.140625 38.5 40.96875 
Q 34.46875 45.796875 28.765625 45.796875 
Q 23 45.796875 18.796875 40.796875 
Q 14.59375 35.796875 14.59375 26.3125 
z
" id="ArialMT-98"/>
     </defs>
     <g transform="translate(130.45423 70.231907)rotate(-90)scale(0.07497 -0.07497)">
      <use xlink:href="#ArialMT-84"/>
      <use x="61.068359" xlink:href="#ArialMT-32"/>
      <use x="88.851562" xlink:href="#ArialMT-99"/>
      <use x="138.851562" xlink:href="#ArialMT-101"/>
      <use x="194.466797" xlink:href="#ArialMT-108"/>
      <use x="216.683594" xlink:href="#ArialMT-108"/>
      <use x="238.900391" xlink:href="#ArialMT-32"/>
      <use x="266.683594" xlink:href="#ArialMT-110"/>
      <use x="322.298828" xlink:href="#ArialMT-117"/>
      <use x="377.914062" xlink:href="#ArialMT-109"/>
      <use x="461.214844" xlink:href="#ArialMT-98"/>
      <use x="516.830078" xlink:href="#ArialMT-101"/>
      <use x="572.445312" xlink:href="#ArialMT-114"/>
     </g>
    </g>
   </g>
   <g id="line2d_93">
    <defs>
     <path d="M 0 1.75 
C 0.464105 1.75 0.909265 1.565609 1.237437 1.237437 
C 1.565609 0.909265 1.75 0.464105 1.75 0 
C 1.75 -0.464105 1.565609 -0.909265 1.237437 -1.237437 
C 0.909265 -1.565609 0.464105 -1.75 0 -1.75 
C -0.464105 -1.75 -0.909265 -1.565609 -1.237437 -1.237437 
C -1.565609 -0.909265 -1.75 -0.464105 -1.75 0 
C -1.75 0.464105 -1.565609 0.909265 -1.237437 1.237437 
C -0.909265 1.565609 -0.464105 1.75 0 1.75 
z
" id="mcbbee512c5" style="stroke:#ff7f0e;stroke-width:0.8;"/>
    </defs>
    <g clip-path="url(#p87dce39e03)">
     <use style="fill:#ff7f0e;stroke:#ff7f0e;stroke-width:0.8;" x="154.735847" xlink:href="#mcbbee512c5" y="81.864199"/>
     <use style="fill:#ff7f0e;stroke:#ff7f0e;stroke-width:0.8;" x="171.057689" xlink:href="#mcbbee512c5" y="56.596625"/>
     <use style="fill:#ff7f0e;stroke:#ff7f0e;stroke-width:0.8;" x="187.379531" xlink:href="#mcbbee512c5" y="19.433272"/>
     <use style="fill:#ff7f0e;stroke:#ff7f0e;stroke-width:0.8;" x="203.701372" xlink:href="#mcbbee512c5" y="7.272181"/>
     <use style="fill:#ff7f0e;stroke:#ff7f0e;stroke-width:0.8;" x="236.345056" xlink:href="#mcbbee512c5" y="18.336671"/>
    </g>
   </g>
   <g id="line2d_94">
    <path clip-path="url(#p87dce39e03)" d="M 154.735847 81.864199 
L 156.484616 78.578663 
L 158.233385 75.294177 
L 159.982153 72.011159 
L 161.730922 68.730197 
L 163.479691 65.452113 
L 165.22846 62.178053 
L 166.977228 58.909617 
L 168.725997 55.649031 
L 170.474766 52.39939 
L 172.223535 49.164971 
L 173.972304 45.951666 
L 175.721072 42.767526 
L 177.469841 39.623453 
L 179.21861 36.534004 
L 180.967379 33.518255 
L 182.716147 30.600568 
L 184.464916 27.810969 
L 186.213685 25.184695 
L 187.962454 22.760417 
L 189.711222 20.576751 
L 191.459991 18.667222 
L 193.20876 17.054649 
L 194.957529 15.746683 
L 196.706297 14.734198 
L 198.455066 13.993207 
L 200.203835 13.4895 
L 201.952604 13.184268 
L 203.701372 13.039033 
L 205.450141 13.018971 
L 207.19891 13.094565 
L 208.947679 13.241947 
L 210.696448 13.442479 
L 212.445216 13.681967 
L 214.193985 13.949795 
L 215.942754 14.238131 
L 217.691523 14.541249 
L 219.440291 14.854991 
L 221.18906 15.176353 
L 222.937829 15.503174 
L 224.686598 15.833899 
L 226.435366 16.167418 
L 228.184135 16.502931 
L 229.932904 16.83987 
L 231.681673 17.177826 
L 233.430441 17.516509 
L 235.17921 17.855711 
L 236.927979 18.195283 
L 238.676748 18.53512 
L 240.425517 18.875145 
" style="fill:none;stroke:#ff7f0e;stroke-linecap:round;stroke-width:1.3;"/>
   </g>
   <g id="line2d_95">
    <defs>
     <path d="M 0 1.75 
C 0.464105 1.75 0.909265 1.565609 1.237437 1.237437 
C 1.565609 0.909265 1.75 0.464105 1.75 0 
C 1.75 -0.464105 1.565609 -0.909265 1.237437 -1.237437 
C 0.909265 -1.565609 0.464105 -1.75 0 -1.75 
C -0.464105 -1.75 -0.909265 -1.565609 -1.237437 -1.237437 
C -1.565609 -0.909265 -1.75 -0.464105 -1.75 0 
C -1.75 0.464105 -1.565609 0.909265 -1.237437 1.237437 
C -0.909265 1.565609 -0.464105 1.75 0 1.75 
z
" id="me37763c997" style="stroke:#2ca02c;stroke-width:0.8;"/>
    </defs>
    <g clip-path="url(#p87dce39e03)">
     <use style="fill:#2ca02c;stroke:#2ca02c;stroke-width:0.8;" x="154.735847" xlink:href="#me37763c997" y="81.864199"/>
     <use style="fill:#2ca02c;stroke:#2ca02c;stroke-width:0.8;" x="171.057689" xlink:href="#me37763c997" y="56.596625"/>
     <use style="fill:#2ca02c;stroke:#2ca02c;stroke-width:0.8;" x="187.379531" xlink:href="#me37763c997" y="25.594561"/>
     <use style="fill:#2ca02c;stroke:#2ca02c;stroke-width:0.8;" x="203.701372" xlink:href="#me37763c997" y="23.308799"/>
     <use style="fill:#2ca02c;stroke:#2ca02c;stroke-width:0.8;" x="236.345056" xlink:href="#me37763c997" y="29.215924"/>
    </g>
   </g>
   <g id="line2d_96">
    <path clip-path="url(#p87dce39e03)" d="M 154.735847 81.864199 
L 156.484616 78.583103 
L 158.233385 75.30483 
L 159.982153 72.030507 
L 161.730922 68.761704 
L 163.479691 65.500606 
L 165.22846 62.25025 
L 166.977228 59.01484 
L 168.725997 55.800161 
L 170.474766 52.614128 
L 172.223535 49.467462 
L 173.972304 46.374492 
L 175.721072 43.354019 
L 177.469841 40.430094 
L 179.21861 37.632426 
L 180.967379 34.995993 
L 182.716147 32.55935 
L 184.464916 30.361237 
L 186.213685 28.435614 
L 187.962454 26.806037 
L 189.711222 25.481083 
L 191.459991 24.452549 
L 193.20876 23.697175 
L 194.957529 23.181176 
L 196.706297 22.865858 
L 198.455066 22.712619 
L 200.203835 22.686375 
L 201.952604 22.75729 
L 203.701372 22.901187 
L 205.450141 23.099153 
L 207.19891 23.336767 
L 208.947679 23.603237 
L 210.696448 23.890592 
L 212.445216 24.193003 
L 214.193985 24.506238 
L 215.942754 24.827237 
L 217.691523 25.153797 
L 219.440291 25.484337 
L 221.18906 25.817722 
L 222.937829 26.153141 
L 224.686598 26.490012 
L 226.435366 26.82792 
L 228.184135 27.166568 
L 229.932904 27.505746 
L 231.681673 27.8453 
L 233.430441 28.185124 
L 235.17921 28.52514 
L 236.927979 28.865294 
L 238.676748 29.205545 
L 240.425517 29.545866 
" style="fill:none;stroke:#2ca02c;stroke-linecap:round;stroke-width:1.3;"/>
   </g>
   <g id="line2d_97">
    <defs>
     <path d="M 0 1.75 
C 0.464105 1.75 0.909265 1.565609 1.237437 1.237437 
C 1.565609 0.909265 1.75 0.464105 1.75 0 
C 1.75 -0.464105 1.565609 -0.909265 1.237437 -1.237437 
C 0.909265 -1.565609 0.464105 -1.75 0 -1.75 
C -0.464105 -1.75 -0.909265 -1.565609 -1.237437 -1.237437 
C -1.565609 -0.909265 -1.75 -0.464105 -1.75 0 
C -1.75 0.464105 -1.565609 0.909265 -1.237437 1.237437 
C -0.909265 1.565609 -0.464105 1.75 0 1.75 
z
" id="m46e589a6a7" style="stroke:#d62728;stroke-width:0.8;"/>
    </defs>
    <g clip-path="url(#p87dce39e03)">
     <use style="fill:#d62728;stroke:#d62728;stroke-width:0.8;" x="154.735847" xlink:href="#m46e589a6a7" y="81.864199"/>
     <use style="fill:#d62728;stroke:#d62728;stroke-width:0.8;" x="171.057689" xlink:href="#m46e589a6a7" y="54.3373"/>
     <use style="fill:#d62728;stroke:#d62728;stroke-width:0.8;" x="187.379531" xlink:href="#m46e589a6a7" y="30.497762"/>
     <use style="fill:#d62728;stroke:#d62728;stroke-width:0.8;" x="203.701372" xlink:href="#m46e589a6a7" y="32.516947"/>
     <use style="fill:#d62728;stroke:#d62728;stroke-width:0.8;" x="236.345056" xlink:href="#m46e589a6a7" y="43.764749"/>
    </g>
   </g>
   <g id="line2d_98">
    <path clip-path="url(#p87dce39e03)" d="M 154.735847 81.864199 
L 156.484616 78.586751 
L 158.233385 75.31358 
L 159.982153 72.046385 
L 161.730922 68.787533 
L 163.479691 65.540303 
L 165.22846 62.309235 
L 166.977228 59.100567 
L 168.725997 55.922816 
L 170.474766 52.787484 
L 172.223535 49.709888 
L 173.972304 46.710016 
L 175.721072 43.813253 
L 177.469841 41.050635 
L 179.21861 38.458208 
L 180.967379 36.074942 
L 182.716147 33.938939 
L 184.464916 32.082181 
L 186.213685 30.524995 
L 187.962454 29.271994 
L 189.711222 28.311105 
L 191.459991 27.616078 
L 193.20876 27.151449 
L 194.957529 26.878143 
L 196.706297 26.758151 
L 198.455066 26.757539 
L 200.203835 26.847819 
L 201.952604 27.006126 
L 203.701372 27.214692 
L 205.450141 27.460039 
L 207.19891 27.732115 
L 208.947679 28.023517 
L 210.696448 28.32884 
L 212.445216 28.644164 
L 214.193985 28.966661 
L 215.942754 29.294293 
L 217.691523 29.6256 
L 219.440291 29.959533 
L 221.18906 30.295343 
L 222.937829 30.632493 
L 224.686598 30.970601 
L 226.435366 31.309392 
L 228.184135 31.648671 
L 229.932904 31.988298 
L 231.681673 32.328174 
L 233.430441 32.668227 
L 235.17921 33.008407 
L 236.927979 33.348677 
L 238.676748 33.689012 
L 240.425517 34.029392 
" style="fill:none;stroke:#d62728;stroke-linecap:round;stroke-width:1.3;"/>
   </g>
   <g id="line2d_99">
    <defs>
     <path d="M 0 1.75 
C 0.464105 1.75 0.909265 1.565609 1.237437 1.237437 
C 1.565609 0.909265 1.75 0.464105 1.75 0 
C 1.75 -0.464105 1.565609 -0.909265 1.237437 -1.237437 
C 0.909265 -1.565609 0.464105 -1.75 0 -1.75 
C -0.464105 -1.75 -0.909265 -1.565609 -1.237437 -1.237437 
C -1.565609 -0.909265 -1.75 -0.464105 -1.75 0 
C -1.75 0.464105 -1.565609 0.909265 -1.237437 1.237437 
C -0.909265 1.565609 -0.464105 1.75 0 1.75 
z
" id="med7cfed961" style="stroke:#9467bd;stroke-width:0.8;"/>
    </defs>
    <g clip-path="url(#p87dce39e03)">
     <use style="fill:#9467bd;stroke:#9467bd;stroke-width:0.8;" x="154.735847" xlink:href="#med7cfed961" y="81.864199"/>
     <use style="fill:#9467bd;stroke:#9467bd;stroke-width:0.8;" x="171.057689" xlink:href="#med7cfed961" y="56.596625"/>
     <use style="fill:#9467bd;stroke:#9467bd;stroke-width:0.8;" x="187.379531" xlink:href="#med7cfed961" y="43.764749"/>
     <use style="fill:#9467bd;stroke:#9467bd;stroke-width:0.8;" x="203.701372" xlink:href="#med7cfed961" y="44.938898"/>
     <use style="fill:#9467bd;stroke:#9467bd;stroke-width:0.8;" x="236.345056" xlink:href="#med7cfed961" y="52.358991"/>
    </g>
   </g>
   <g id="line2d_100">
    <path clip-path="url(#p87dce39e03)" d="M 154.735847 81.864199 
L 156.484616 78.623335 
L 158.233385 75.401099 
L 159.982153 72.20464 
L 161.730922 69.043674 
L 163.479691 65.931252 
L 165.22846 62.884616 
L 166.977228 59.926022 
L 168.725997 57.083318 
L 170.474766 54.389866 
L 172.223535 51.883333 
L 173.972304 49.602881 
L 175.721072 47.584653 
L 177.469841 45.856214 
L 179.21861 44.431417 
L 180.967379 43.307545 
L 182.716147 42.465885 
L 184.464916 41.875498 
L 186.213685 41.498694 
L 187.962454 41.296375 
L 189.711222 41.232034 
L 191.459991 41.274014 
L 193.20876 41.396297 
L 194.957529 41.578317 
L 196.706297 41.804274 
L 198.455066 42.062279 
L 200.203835 42.343517 
L 201.952604 42.641524 
L 203.701372 42.951595 
L 205.450141 43.270326 
L 207.19891 43.595263 
L 208.947679 43.924641 
L 210.696448 44.257196 
L 212.445216 44.592021 
L 214.193985 44.928468 
L 215.942754 45.266074 
L 217.691523 45.604506 
L 219.440291 45.943529 
L 221.18906 46.282974 
L 222.937829 46.622719 
L 224.686598 46.962679 
L 226.435366 47.302793 
L 228.184135 47.643016 
L 229.932904 47.983316 
L 231.681673 48.323673 
L 233.430441 48.664069 
L 235.17921 49.004494 
L 236.927979 49.344939 
L 238.676748 49.685398 
L 240.425517 50.025868 
" style="fill:none;stroke:#9467bd;stroke-linecap:round;stroke-width:1.3;"/>
   </g>
   <g id="line2d_101">
    <defs>
     <path d="M 0 1.75 
C 0.464105 1.75 0.909265 1.565609 1.237437 1.237437 
C 1.565609 0.909265 1.75 0.464105 1.75 0 
C 1.75 -0.464105 1.565609 -0.909265 1.237437 -1.237437 
C 0.909265 -1.565609 0.464105 -1.75 0 -1.75 
C -0.464105 -1.75 -0.909265 -1.565609 -1.237437 -1.237437 
C -1.565609 -0.909265 -1.75 -0.464105 -1.75 0 
C -1.75 0.464105 -1.565609 0.909265 -1.237437 1.237437 
C -0.909265 1.565609 -0.464105 1.75 0 1.75 
z
" id="mb36d2b4b8a" style="stroke:#8c564b;stroke-width:0.8;"/>
    </defs>
    <g clip-path="url(#p87dce39e03)">
     <use style="fill:#8c564b;stroke:#8c564b;stroke-width:0.8;" x="154.735847" xlink:href="#mb36d2b4b8a" y="81.864199"/>
     <use style="fill:#8c564b;stroke:#8c564b;stroke-width:0.8;" x="171.057689" xlink:href="#mb36d2b4b8a" y="64.343687"/>
     <use style="fill:#8c564b;stroke:#8c564b;stroke-width:0.8;" x="187.379531" xlink:href="#mb36d2b4b8a" y="52.358991"/>
     <use style="fill:#8c564b;stroke:#8c564b;stroke-width:0.8;" x="203.701372" xlink:href="#mb36d2b4b8a" y="54.3373"/>
     <use style="fill:#8c564b;stroke:#8c564b;stroke-width:0.8;" x="236.345056" xlink:href="#mb36d2b4b8a" y="62.44235"/>
    </g>
   </g>
   <g id="line2d_102">
    <path clip-path="url(#p87dce39e03)" d="M 154.735847 81.864199 
L 156.484616 78.752111 
L 158.233385 75.705924 
L 159.982153 72.747927 
L 161.730922 69.906002 
L 163.479691 67.213539 
L 165.22846 64.708227 
L 166.977228 62.429223 
L 168.725997 60.412637 
L 170.474766 58.685966 
L 172.223535 57.262971 
L 173.972304 56.140835 
L 175.721072 55.300759 
L 177.469841 54.711749 
L 179.21861 54.336088 
L 180.967379 54.134687 
L 182.716147 54.071062 
L 184.464916 54.113587 
L 186.213685 54.236278 
L 187.962454 54.418599 
L 189.711222 54.644777 
L 191.459991 54.902942 
L 193.20876 55.184297 
L 194.957529 55.482387 
L 196.706297 55.792518 
L 198.455066 56.111293 
L 200.203835 56.43626 
L 201.952604 56.765661 
L 203.701372 57.098231 
L 205.450141 57.433068 
L 207.19891 57.769523 
L 208.947679 58.107134 
L 210.696448 58.445571 
L 212.445216 58.784597 
L 214.193985 59.124043 
L 215.942754 59.46379 
L 217.691523 59.803751 
L 219.440291 60.143865 
L 221.18906 60.484089 
L 222.937829 60.82439 
L 224.686598 61.164747 
L 226.435366 61.505143 
L 228.184135 61.845568 
L 229.932904 62.186013 
L 231.681673 62.526472 
L 233.430441 62.866942 
L 235.17921 63.207419 
L 236.927979 63.547901 
L 238.676748 63.888387 
L 240.425517 64.228876 
" style="fill:none;stroke:#8c564b;stroke-linecap:round;stroke-width:1.3;"/>
   </g>
   <g id="line2d_103">
    <defs>
     <path d="M 0 1.75 
C 0.464105 1.75 0.909265 1.565609 1.237437 1.237437 
C 1.565609 0.909265 1.75 0.464105 1.75 0 
C 1.75 -0.464105 1.565609 -0.909265 1.237437 -1.237437 
C 0.909265 -1.565609 0.464105 -1.75 0 -1.75 
C -0.464105 -1.75 -0.909265 -1.565609 -1.237437 -1.237437 
C -1.565609 -0.909265 -1.75 -0.464105 -1.75 0 
C -1.75 0.464105 -1.565609 0.909265 -1.237437 1.237437 
C -0.909265 1.565609 -0.464105 1.75 0 1.75 
z
" id="m35aa248198" style="stroke:#e377c2;stroke-width:0.8;"/>
    </defs>
    <g clip-path="url(#p87dce39e03)">
     <use style="fill:#e377c2;stroke:#e377c2;stroke-width:0.8;" x="154.735847" xlink:href="#m35aa248198" y="81.864199"/>
     <use style="fill:#e377c2;stroke:#e377c2;stroke-width:0.8;" x="171.057689" xlink:href="#m35aa248198" y="76.237629"/>
     <use style="fill:#e377c2;stroke:#e377c2;stroke-width:0.8;" x="187.379531" xlink:href="#m35aa248198" y="78.226724"/>
     <use style="fill:#e377c2;stroke:#e377c2;stroke-width:0.8;" x="203.701372" xlink:href="#m35aa248198" y="79.337642"/>
     <use style="fill:#e377c2;stroke:#e377c2;stroke-width:0.8;" x="236.345056" xlink:href="#m35aa248198" y="81.864199"/>
    </g>
   </g>
   <g id="line2d_104">
    <path clip-path="url(#p87dce39e03)" d="M 154.735847 81.864199 
L 156.484616 79.768011 
L 158.233385 77.954962 
L 159.982153 76.443232 
L 161.730922 75.234923 
L 163.479691 74.315611 
L 165.22846 73.657322 
L 166.977228 73.223706 
L 168.725997 72.975587 
L 170.474766 72.875416 
L 172.223535 72.890018 
L 173.972304 72.991756 
L 175.721072 73.158566 
L 177.469841 73.373376 
L 179.21861 73.623272 
L 180.967379 73.898643 
L 182.716147 74.192421 
L 184.464916 74.499453 
L 186.213685 74.816004 
L 187.962454 75.139379 
L 189.711222 75.46764 
L 191.459991 75.799396 
L 193.20876 76.13365 
L 194.957529 76.46969 
L 196.706297 76.807004 
L 198.455066 77.145229 
L 200.203835 77.484103 
L 201.952604 77.823442 
L 203.701372 78.163112 
L 205.450141 78.503018 
L 207.19891 78.843093 
L 208.947679 79.183288 
L 210.696448 79.523569 
L 212.445216 79.863912 
L 214.193985 80.204298 
L 215.942754 80.544715 
L 217.691523 80.885155 
L 219.440291 81.225611 
L 221.18906 81.566078 
L 222.937829 81.906553 
L 224.686598 82.247034 
L 226.435366 82.587519 
L 228.184135 82.928007 
L 229.932904 83.268497 
L 231.681673 83.608989 
L 233.430441 83.949481 
L 235.17921 84.289975 
L 236.927979 84.630469 
L 238.676748 84.970963 
L 240.425517 85.311458 
" style="fill:none;stroke:#e377c2;stroke-linecap:round;stroke-width:1.3;"/>
   </g>
   <g id="patch_6">
    <path d="M 150.451364 91.36425 
L 150.451364 3.69 
" style="fill:none;stroke:#000000;stroke-linecap:square;stroke-linejoin:miter;"/>
   </g>
   <g id="patch_7">
    <path d="M 150.451364 91.36425 
L 244.71 91.36425 
" style="fill:none;stroke:#000000;stroke-linecap:square;stroke-linejoin:miter;"/>
   </g>
   <g id="text_21">
    <!-- B -->
    <defs>
     <path d="M 7.328125 71.578125 
L 35.9375 71.578125 
Q 44.4375 71.578125 48.609375 70.875 
Q 52.78125 70.171875 56.078125 67.921875 
Q 59.375 65.671875 61.5625 61.9375 
Q 63.765625 58.203125 63.765625 53.5625 
Q 63.765625 48.53125 61.046875 44.328125 
Q 58.34375 40.140625 53.71875 38.03125 
Q 60.25 36.140625 63.765625 31.546875 
Q 67.28125 26.953125 67.28125 20.75 
Q 67.28125 15.875 65.015625 11.25 
Q 62.75 6.640625 58.8125 3.875 
Q 54.890625 1.125 49.125 0.484375 
Q 45.515625 0.09375 31.6875 0 
L 7.328125 0 
z
M 21.78125 59.671875 
L 21.78125 43.109375 
L 31.25 43.109375 
Q 39.703125 43.109375 41.75 43.359375 
Q 45.453125 43.796875 47.578125 45.921875 
Q 49.703125 48.046875 49.703125 51.515625 
Q 49.703125 54.828125 47.875 56.90625 
Q 46.046875 58.984375 42.4375 59.421875 
Q 40.28125 59.671875 30.078125 59.671875 
z
M 21.78125 31.203125 
L 21.78125 12.0625 
L 35.15625 12.0625 
Q 42.96875 12.0625 45.0625 12.5 
Q 48.296875 13.09375 50.3125 15.359375 
Q 52.34375 17.625 52.34375 21.4375 
Q 52.34375 24.65625 50.78125 26.90625 
Q 49.21875 29.15625 46.265625 30.171875 
Q 43.3125 31.203125 33.453125 31.203125 
z
" id="Arial-BoldMT-66"/>
    </defs>
    <g transform="translate(122.173773 8.950455)scale(0.1 -0.1)">
     <use xlink:href="#Arial-BoldMT-66"/>
    </g>
   </g>
  </g>
 </g>
 <defs>
  <clipPath id="pc79977ba1d">
   <rect height="87.67425" width="94.258636" x="28.501364" y="3.69"/>
  </clipPath>
  <clipPath id="p87dce39e03">
   <rect height="87.67425" width="94.258636" x="150.451364" y="3.69"/>
  </clipPath>
 </defs>
</svg>
