<?xml version="1.0" encoding="utf-8" standalone="no"?>
<!DOCTYPE svg PUBLIC "-//W3C//DTD SVG 1.1//EN"
  "http://www.w3.org/Graphics/SVG/1.1/DTD/svg11.dtd">
<!-- Created with matplotlib (https://matplotlib.org/) -->
<svg height="201.6pt" version="1.1" viewBox="0 0 255.6 201.6" width="255.6pt" xmlns="http://www.w3.org/2000/svg" xmlns:xlink="http://www.w3.org/1999/xlink">
 <defs>
  <style type="text/css">
*{stroke-linecap:butt;stroke-linejoin:round;}
  </style>
 </defs>
 <g id="figure_1">
  <g id="patch_1">
   <path d="M 0 201.6 
L 255.6 201.6 
L 255.6 0 
L 0 0 
z
" style="fill:#ffffff;"/>
  </g>
  <g id="axes_1">
   <g id="patch_2">
    <path d="M 27.988912 86.080765 
L 132.251797 86.080765 
L 132.251797 3.69 
L 27.988912 3.69 
z
" style="fill:#ffffff;"/>
   </g>
   <g id="matplotlib.axis_1">
    <g id="xtick_1">
     <g id="line2d_1">
      <defs>
       <path d="M 0 2 
L 0 -2 
" id="mcf518a9907" style="stroke:#000000;stroke-width:0.8;"/>
      </defs>
      <g>
       <use style="stroke:#000000;stroke-width:0.8;" x="27.988912" xlink:href="#mcf518a9907" y="86.080765"/>
      </g>
     </g>
    </g>
    <g id="xtick_2">
     <g id="line2d_2">
      <g>
       <use style="stroke:#000000;stroke-width:0.8;" x="60.0698" xlink:href="#mcf518a9907" y="86.080765"/>
      </g>
     </g>
    </g>
    <g id="xtick_3">
     <g id="line2d_3">
      <g>
       <use style="stroke:#000000;stroke-width:0.8;" x="92.150687" xlink:href="#mcf518a9907" y="86.080765"/>
      </g>
     </g>
    </g>
    <g id="xtick_4">
     <g id="line2d_4">
      <g>
       <use style="stroke:#000000;stroke-width:0.8;" x="124.231575" xlink:href="#mcf518a9907" y="86.080765"/>
      </g>
     </g>
    </g>
   </g>
   <g id="matplotlib.axis_2">
    <g id="ytick_1">
     <g id="line2d_5">
      <defs>
       <path d="M 2 0 
L -2 -0 
" id="mf7257a62e9" style="stroke:#000000;stroke-width:0.8;"/>
      </defs>
      <g>
       <use style="stroke:#000000;stroke-width:0.8;" x="27.988912" xlink:href="#mf7257a62e9" y="86.080765"/>
      </g>
     </g>
     <g id="text_1">
      <!-- $\mathdefault{10^{0}}$ -->
      <defs>
       <path d="M 37.25 0 
L 28.46875 0 
L 28.46875 56 
Q 25.296875 52.984375 20.140625 49.953125 
Q 14.984375 46.921875 10.890625 45.40625 
L 10.890625 53.90625 
Q 18.265625 57.375 23.78125 62.296875 
Q 29.296875 67.234375 31.59375 71.875 
L 37.25 71.875 
z
" id="ArialMT-49"/>
       <path d="M 4.15625 35.296875 
Q 4.15625 48 6.765625 55.734375 
Q 9.375 63.484375 14.515625 67.671875 
Q 19.671875 71.875 27.484375 71.875 
Q 33.25 71.875 37.59375 69.546875 
Q 41.9375 67.234375 44.765625 62.859375 
Q 47.609375 58.5 49.21875 52.21875 
Q 50.828125 45.953125 50.828125 35.296875 
Q 50.828125 22.703125 48.234375 14.96875 
Q 45.65625 7.234375 40.5 3 
Q 35.359375 -1.21875 27.484375 -1.21875 
Q 17.140625 -1.21875 11.234375 6.203125 
Q 4.15625 15.140625 4.15625 35.296875 
z
M 13.1875 35.296875 
Q 13.1875 17.671875 17.3125 11.828125 
Q 21.4375 6 27.484375 6 
Q 33.546875 6 37.671875 11.859375 
Q 41.796875 17.71875 41.796875 35.296875 
Q 41.796875 52.984375 37.671875 58.78125 
Q 33.546875 64.59375 27.390625 64.59375 
Q 21.34375 64.59375 17.71875 59.46875 
Q 13.1875 52.9375 13.1875 35.296875 
z
" id="ArialMT-48"/>
      </defs>
      <g transform="translate(11.718622 89.946406)scale(0.07497 -0.07497)">
       <use transform="translate(0 0.99375)" xlink:href="#ArialMT-49"/>
       <use transform="translate(55.615234 0.99375)" xlink:href="#ArialMT-48"/>
       <use transform="translate(112.972813 70.6875)scale(0.7)" xlink:href="#ArialMT-48"/>
      </g>
     </g>
    </g>
    <g id="ytick_2">
     <g id="line2d_6">
      <g>
       <use style="stroke:#000000;stroke-width:0.8;" x="27.988912" xlink:href="#mf7257a62e9" y="65.483074"/>
      </g>
     </g>
     <g id="text_2">
      <!-- $\mathdefault{10^{1}}$ -->
      <g transform="translate(11.718622 69.348714)scale(0.07497 -0.07497)">
       <use transform="translate(0 0.99375)" xlink:href="#ArialMT-49"/>
       <use transform="translate(55.615234 0.99375)" xlink:href="#ArialMT-48"/>
       <use transform="translate(112.972813 70.6875)scale(0.7)" xlink:href="#ArialMT-49"/>
      </g>
     </g>
    </g>
    <g id="ytick_3">
     <g id="line2d_7">
      <g>
       <use style="stroke:#000000;stroke-width:0.8;" x="27.988912" xlink:href="#mf7257a62e9" y="44.885382"/>
      </g>
     </g>
     <g id="text_3">
      <!-- $\mathdefault{10^{2}}$ -->
      <defs>
       <path d="M 50.34375 8.453125 
L 50.34375 0 
L 3.03125 0 
Q 2.9375 3.171875 4.046875 6.109375 
Q 5.859375 10.9375 9.828125 15.625 
Q 13.8125 20.3125 21.34375 26.46875 
Q 33.015625 36.03125 37.109375 41.625 
Q 41.21875 47.21875 41.21875 52.203125 
Q 41.21875 57.421875 37.46875 61 
Q 33.734375 64.59375 27.734375 64.59375 
Q 21.390625 64.59375 17.578125 60.78125 
Q 13.765625 56.984375 13.71875 50.25 
L 4.6875 51.171875 
Q 5.609375 61.28125 11.65625 66.578125 
Q 17.71875 71.875 27.9375 71.875 
Q 38.234375 71.875 44.234375 66.15625 
Q 50.25 60.453125 50.25 52 
Q 50.25 47.703125 48.484375 43.546875 
Q 46.734375 39.40625 42.65625 34.8125 
Q 38.578125 30.21875 29.109375 22.21875 
Q 21.1875 15.578125 18.9375 13.203125 
Q 16.703125 10.84375 15.234375 8.453125 
z
" id="ArialMT-50"/>
      </defs>
      <g transform="translate(11.718622 48.751023)scale(0.07497 -0.07497)">
       <use transform="translate(0 0.99375)" xlink:href="#ArialMT-49"/>
       <use transform="translate(55.615234 0.99375)" xlink:href="#ArialMT-48"/>
       <use transform="translate(112.972813 70.6875)scale(0.7)" xlink:href="#ArialMT-50"/>
      </g>
     </g>
    </g>
    <g id="ytick_4">
     <g id="line2d_8">
      <g>
       <use style="stroke:#000000;stroke-width:0.8;" x="27.988912" xlink:href="#mf7257a62e9" y="24.287691"/>
      </g>
     </g>
     <g id="text_4">
      <!-- $\mathdefault{10^{3}}$ -->
      <defs>
       <path d="M 4.203125 18.890625 
L 12.984375 20.0625 
Q 14.5 12.59375 18.140625 9.296875 
Q 21.78125 6 27 6 
Q 33.203125 6 37.46875 10.296875 
Q 41.75 14.59375 41.75 20.953125 
Q 41.75 27 37.796875 30.921875 
Q 33.84375 34.859375 27.734375 34.859375 
Q 25.25 34.859375 21.53125 33.890625 
L 22.515625 41.609375 
Q 23.390625 41.5 23.921875 41.5 
Q 29.546875 41.5 34.03125 44.421875 
Q 38.53125 47.359375 38.53125 53.46875 
Q 38.53125 58.296875 35.25 61.46875 
Q 31.984375 64.65625 26.8125 64.65625 
Q 21.6875 64.65625 18.265625 61.421875 
Q 14.84375 58.203125 13.875 51.765625 
L 5.078125 53.328125 
Q 6.6875 62.15625 12.390625 67.015625 
Q 18.109375 71.875 26.609375 71.875 
Q 32.46875 71.875 37.390625 69.359375 
Q 42.328125 66.84375 44.9375 62.5 
Q 47.5625 58.15625 47.5625 53.265625 
Q 47.5625 48.640625 45.0625 44.828125 
Q 42.578125 41.015625 37.703125 38.765625 
Q 44.046875 37.3125 47.5625 32.6875 
Q 51.078125 28.078125 51.078125 21.140625 
Q 51.078125 11.765625 44.234375 5.25 
Q 37.40625 -1.265625 26.953125 -1.265625 
Q 17.53125 -1.265625 11.296875 4.34375 
Q 5.078125 9.96875 4.203125 18.890625 
z
" id="ArialMT-51"/>
      </defs>
      <g transform="translate(11.718622 28.153332)scale(0.07497 -0.07497)">
       <use transform="translate(0 0.99375)" xlink:href="#ArialMT-49"/>
       <use transform="translate(55.615234 0.99375)" xlink:href="#ArialMT-48"/>
       <use transform="translate(112.972813 70.6875)scale(0.7)" xlink:href="#ArialMT-51"/>
      </g>
     </g>
    </g>
    <g id="ytick_5">
     <g id="line2d_9"/>
    </g>
    <g id="ytick_6">
     <g id="line2d_10"/>
    </g>
    <g id="ytick_7">
     <g id="line2d_11"/>
    </g>
    <g id="ytick_8">
     <g id="line2d_12"/>
    </g>
    <g id="ytick_9">
     <g id="line2d_13"/>
    </g>
    <g id="ytick_10">
     <g id="line2d_14"/>
    </g>
    <g id="ytick_11">
     <g id="line2d_15"/>
    </g>
    <g id="ytick_12">
     <g id="line2d_16"/>
    </g>
    <g id="ytick_13">
     <g id="line2d_17"/>
    </g>
    <g id="ytick_14">
     <g id="line2d_18"/>
    </g>
    <g id="ytick_15">
     <g id="line2d_19"/>
    </g>
    <g id="ytick_16">
     <g id="line2d_20"/>
    </g>
    <g id="ytick_17">
     <g id="line2d_21"/>
    </g>
    <g id="ytick_18">
     <g id="line2d_22"/>
    </g>
    <g id="ytick_19">
     <g id="line2d_23"/>
    </g>
    <g id="ytick_20">
     <g id="line2d_24"/>
    </g>
    <g id="ytick_21">
     <g id="line2d_25"/>
    </g>
    <g id="ytick_22">
     <g id="line2d_26"/>
    </g>
    <g id="ytick_23">
     <g id="line2d_27"/>
    </g>
    <g id="ytick_24">
     <g id="line2d_28"/>
    </g>
    <g id="ytick_25">
     <g id="line2d_29"/>
    </g>
    <g id="ytick_26">
     <g id="line2d_30"/>
    </g>
    <g id="ytick_27">
     <g id="line2d_31"/>
    </g>
    <g id="ytick_28">
     <g id="line2d_32"/>
    </g>
    <g id="ytick_29">
     <g id="line2d_33"/>
    </g>
    <g id="ytick_30">
     <g id="line2d_34"/>
    </g>
    <g id="ytick_31">
     <g id="line2d_35"/>
    </g>
    <g id="ytick_32">
     <g id="line2d_36"/>
    </g>
    <g id="ytick_33">
     <g id="line2d_37"/>
    </g>
    <g id="ytick_34">
     <g id="line2d_38"/>
    </g>
    <g id="ytick_35">
     <g id="line2d_39"/>
    </g>
    <g id="ytick_36">
     <g id="line2d_40"/>
    </g>
    <g id="text_5">
     <!-- Number -->
     <defs>
      <path d="M 7.625 0 
L 7.625 71.578125 
L 17.328125 71.578125 
L 54.9375 15.375 
L 54.9375 71.578125 
L 64.015625 71.578125 
L 64.015625 0 
L 54.296875 0 
L 16.703125 56.25 
L 16.703125 0 
z
" id="ArialMT-78"/>
      <path d="M 40.578125 0 
L 40.578125 7.625 
Q 34.515625 -1.171875 24.125 -1.171875 
Q 19.53125 -1.171875 15.546875 0.578125 
Q 11.578125 2.34375 9.640625 5 
Q 7.71875 7.671875 6.9375 11.53125 
Q 6.390625 14.109375 6.390625 19.734375 
L 6.390625 51.859375 
L 15.1875 51.859375 
L 15.1875 23.09375 
Q 15.1875 16.21875 15.71875 13.8125 
Q 16.546875 10.359375 19.234375 8.375 
Q 21.921875 6.390625 25.875 6.390625 
Q 29.828125 6.390625 33.296875 8.421875 
Q 36.765625 10.453125 38.203125 13.9375 
Q 39.65625 17.4375 39.65625 24.078125 
L 39.65625 51.859375 
L 48.4375 51.859375 
L 48.4375 0 
z
" id="ArialMT-117"/>
      <path d="M 6.59375 0 
L 6.59375 51.859375 
L 14.453125 51.859375 
L 14.453125 44.578125 
Q 16.890625 48.390625 20.9375 50.703125 
Q 25 53.03125 30.171875 53.03125 
Q 35.9375 53.03125 39.625 50.640625 
Q 43.3125 48.25 44.828125 43.953125 
Q 50.984375 53.03125 60.84375 53.03125 
Q 68.5625 53.03125 72.703125 48.75 
Q 76.859375 44.484375 76.859375 35.59375 
L 76.859375 0 
L 68.109375 0 
L 68.109375 32.671875 
Q 68.109375 37.9375 67.25 40.25 
Q 66.40625 42.578125 64.15625 43.984375 
Q 61.921875 45.40625 58.890625 45.40625 
Q 53.421875 45.40625 49.796875 41.765625 
Q 46.1875 38.140625 46.1875 30.125 
L 46.1875 0 
L 37.40625 0 
L 37.40625 33.6875 
Q 37.40625 39.546875 35.25 42.46875 
Q 33.109375 45.40625 28.21875 45.40625 
Q 24.515625 45.40625 21.359375 43.453125 
Q 18.21875 41.5 16.796875 37.734375 
Q 15.375 33.984375 15.375 26.90625 
L 15.375 0 
z
" id="ArialMT-109"/>
      <path d="M 14.703125 0 
L 6.546875 0 
L 6.546875 71.578125 
L 15.328125 71.578125 
L 15.328125 46.046875 
Q 20.90625 53.03125 29.546875 53.03125 
Q 34.328125 53.03125 38.59375 51.09375 
Q 42.875 49.171875 45.625 45.671875 
Q 48.390625 42.1875 49.953125 37.25 
Q 51.515625 32.328125 51.515625 26.703125 
Q 51.515625 13.375 44.921875 6.09375 
Q 38.328125 -1.171875 29.109375 -1.171875 
Q 19.921875 -1.171875 14.703125 6.5 
z
M 14.59375 26.3125 
Q 14.59375 17 17.140625 12.84375 
Q 21.296875 6.0625 28.375 6.0625 
Q 34.125 6.0625 38.328125 11.0625 
Q 42.53125 16.0625 42.53125 25.984375 
Q 42.53125 36.140625 38.5 40.96875 
Q 34.46875 45.796875 28.765625 45.796875 
Q 23 45.796875 18.796875 40.796875 
Q 14.59375 35.796875 14.59375 26.3125 
z
" id="ArialMT-98"/>
      <path d="M 42.09375 16.703125 
L 51.171875 15.578125 
Q 49.03125 7.625 43.21875 3.21875 
Q 37.40625 -1.171875 28.375 -1.171875 
Q 17 -1.171875 10.328125 5.828125 
Q 3.65625 12.84375 3.65625 25.484375 
Q 3.65625 38.578125 10.390625 45.796875 
Q 17.140625 53.03125 27.875 53.03125 
Q 38.28125 53.03125 44.875 45.953125 
Q 51.46875 38.875 51.46875 26.03125 
Q 51.46875 25.25 51.421875 23.6875 
L 12.75 23.6875 
Q 13.234375 15.140625 17.578125 10.59375 
Q 21.921875 6.0625 28.421875 6.0625 
Q 33.25 6.0625 36.671875 8.59375 
Q 40.09375 11.140625 42.09375 16.703125 
z
M 13.234375 30.90625 
L 42.1875 30.90625 
Q 41.609375 37.453125 38.875 40.71875 
Q 34.671875 45.796875 27.984375 45.796875 
Q 21.921875 45.796875 17.796875 41.75 
Q 13.671875 37.703125 13.234375 30.90625 
z
" id="ArialMT-101"/>
      <path d="M 6.5 0 
L 6.5 51.859375 
L 14.40625 51.859375 
L 14.40625 44 
Q 17.4375 49.515625 20 51.265625 
Q 22.5625 53.03125 25.640625 53.03125 
Q 30.078125 53.03125 34.671875 50.203125 
L 31.640625 42.046875 
Q 28.421875 43.953125 25.203125 43.953125 
Q 22.3125 43.953125 20.015625 42.21875 
Q 17.71875 40.484375 16.75 37.40625 
Q 15.28125 32.71875 15.28125 27.15625 
L 15.28125 0 
z
" id="ArialMT-114"/>
     </defs>
     <g transform="translate(8.728593 58.216571)rotate(-90)scale(0.07497 -0.07497)">
      <use xlink:href="#ArialMT-78"/>
      <use x="72.216797" xlink:href="#ArialMT-117"/>
      <use x="127.832031" xlink:href="#ArialMT-109"/>
      <use x="211.132812" xlink:href="#ArialMT-98"/>
      <use x="266.748047" xlink:href="#ArialMT-101"/>
      <use x="322.363281" xlink:href="#ArialMT-114"/>
     </g>
    </g>
   </g>
   <g id="line2d_41">
    <path clip-path="url(#p9d4b3afbc5)" d="M 27.988912 65.483074 
L 30.116726 64.059256 
L 32.24454 62.635462 
L 34.372354 61.211696 
L 36.500168 59.787963 
L 38.627982 58.364268 
L 40.755796 56.940618 
L 42.88361 55.51702 
L 45.011424 54.093482 
L 47.139238 52.670016 
L 49.267052 51.246636 
L 51.394866 49.823358 
L 53.52268 48.400203 
L 55.650494 46.977202 
L 57.778308 45.554395 
L 59.906122 44.13184 
L 62.033936 42.709634 
L 64.16175 41.287938 
L 66.289564 39.867083 
L 68.417378 38.447893 
L 70.545192 37.033536 
L 72.673006 35.644365 
L 74.80082 34.342043 
L 76.928634 33.188814 
L 79.056448 32.215508 
L 81.184262 31.413486 
L 83.312075 30.755782 
L 85.439889 30.214651 
L 87.567703 29.766912 
L 89.695517 29.394271 
L 91.823331 29.082462 
L 93.951145 28.820327 
L 96.078959 28.599061 
L 98.206773 28.411648 
L 100.334587 28.252444 
L 102.462401 28.116867 
L 104.590215 28.001166 
L 106.718029 27.90225 
L 108.845843 27.817553 
L 110.973657 27.744937 
L 113.101471 27.68261 
L 115.229285 27.629061 
L 117.357099 27.583017 
L 119.484913 27.543397 
L 121.612727 27.509286 
L 123.740541 27.479902 
L 125.868355 27.454578 
L 127.996169 27.432745 
L 130.123983 27.413916 
L 132.251797 27.397673 
" style="fill:none;stroke:#0e1e97;stroke-linecap:round;stroke-width:1.3;"/>
   </g>
   <g id="line2d_42">
    <path clip-path="url(#p9d4b3afbc5)" d="M 27.988912 65.483074 
L 30.116726 64.060637 
L 32.24454 62.638443 
L 34.372354 61.216529 
L 36.500168 59.794943 
L 38.627982 58.373736 
L 40.755796 56.952971 
L 42.88361 55.532724 
L 45.011424 54.113083 
L 47.139238 52.694156 
L 49.267052 51.276075 
L 51.394866 49.859009 
L 53.52268 48.44317 
L 55.650494 47.028845 
L 57.778308 45.616431 
L 59.906122 44.206508 
L 62.033936 42.79999 
L 64.16175 41.398458 
L 66.289564 40.005044 
L 68.417378 38.62746 
L 70.545192 37.293787 
L 72.673006 36.147685 
L 74.80082 35.397215 
L 76.928634 34.963861 
L 79.056448 34.707859 
L 81.184262 34.544086 
L 83.312075 34.431077 
L 85.439889 34.348635 
L 87.567703 34.286091 
L 89.695517 34.237293 
L 91.823331 34.198428 
L 93.951145 34.166991 
L 96.078959 34.141255 
L 98.206773 34.119988 
L 100.334587 34.102282 
L 102.462401 34.087451 
L 104.590215 34.074965 
L 106.718029 34.064413 
L 108.845843 34.055463 
L 110.973657 34.047851 
L 113.101471 34.041362 
L 115.229285 34.035819 
L 117.357099 34.031077 
L 119.484913 34.027013 
L 121.612727 34.023526 
L 123.740541 34.020532 
L 125.868355 34.017959 
L 127.996169 34.015745 
L 130.123983 34.013839 
L 132.251797 34.012198 
" style="fill:none;stroke:#0e7b97;stroke-linecap:round;stroke-width:1.3;"/>
   </g>
   <g id="line2d_43">
    <path clip-path="url(#p9d4b3afbc5)" d="M 27.988912 3.69 
L 30.116726 4.995307 
L 32.24454 6.300615 
L 34.372354 7.605922 
L 36.500168 8.91123 
L 38.627982 10.216537 
L 40.755796 11.521845 
L 42.88361 12.827152 
L 45.011424 14.132459 
L 47.139238 15.437767 
L 49.267052 16.743074 
L 51.394866 18.048382 
L 53.52268 19.353689 
L 55.650494 20.658997 
L 57.778308 21.964304 
L 59.906122 23.269611 
L 62.033936 24.574919 
L 64.16175 25.880226 
L 66.289564 27.185534 
L 68.417378 28.490841 
L 70.545192 29.796149 
L 72.673006 31.101456 
L 74.80082 32.406763 
L 76.928634 33.712071 
L 79.056448 35.017378 
L 81.184262 36.322686 
L 83.312075 37.627993 
L 85.439889 38.933301 
L 87.567703 40.238608 
L 89.695517 41.543915 
L 91.823331 42.849223 
L 93.951145 44.15453 
L 96.078959 45.459838 
L 98.206773 46.765145 
L 100.334587 48.070453 
L 102.462401 49.37576 
L 104.590215 50.681067 
L 106.718029 51.986375 
L 108.845843 53.291682 
L 110.973657 54.59699 
L 113.101471 55.902297 
L 115.229285 57.207604 
L 117.357099 58.512912 
L 119.484913 59.818219 
L 121.612727 61.123527 
L 123.740541 62.428834 
L 125.868355 63.734142 
L 127.996169 65.039449 
L 130.123983 66.344756 
L 132.251797 67.650064 
" style="fill:none;stroke:#d62728;stroke-dasharray:1.3,2.145;stroke-dashoffset:0;stroke-width:1.3;"/>
   </g>
   <g id="line2d_44">
    <path clip-path="url(#p9d4b3afbc5)" d="M 27.988912 65.483074 
L 30.116726 64.059255 
L 32.24454 62.635461 
L 34.372354 61.211695 
L 36.500168 59.787962 
L 38.627982 58.364266 
L 40.755796 56.940613 
L 42.88361 55.517012 
L 45.011424 54.09347 
L 47.139238 52.669998 
L 49.267052 51.246606 
L 51.394866 49.823311 
L 53.52268 48.400128 
L 55.650494 46.977081 
L 57.778308 45.554198 
L 59.906122 44.131516 
L 62.033936 42.709086 
L 64.16175 41.286985 
L 66.289564 39.865327 
L 68.417378 38.444312 
L 70.545192 37.024326 
L 72.673006 35.606305 
L 74.80082 34.193783 
L 76.928634 32.832197 
L 79.056448 31.718387 
L 81.184262 30.850755 
L 83.312075 30.162065 
L 85.439889 29.606362 
L 87.567703 29.152224 
L 89.695517 28.777388 
L 91.823331 28.465568 
L 93.951145 28.204533 
L 96.078959 27.984892 
L 98.206773 27.799304 
L 100.334587 27.641948 
L 102.462401 27.508144 
L 104.590215 27.394091 
L 106.718029 27.296679 
L 108.845843 27.213335 
L 110.973657 27.141926 
L 113.101471 27.080667 
L 115.229285 27.02806 
L 117.357099 26.982843 
L 119.484913 26.943947 
L 121.612727 26.910468 
L 123.740541 26.881635 
L 125.868355 26.856791 
L 127.996169 26.835375 
L 130.123983 26.816908 
L 132.251797 26.800979 
" style="fill:none;stroke:#0e1e97;stroke-dasharray:4.81,2.08;stroke-dashoffset:0;stroke-width:1.3;"/>
   </g>
   <g id="line2d_45">
    <path clip-path="url(#p9d4b3afbc5)" d="M 27.988912 65.483074 
L 30.116726 64.060635 
L 32.24454 62.638438 
L 34.372354 61.21652 
L 36.500168 59.794927 
L 38.627982 58.373709 
L 40.755796 56.952927 
L 42.88361 55.532652 
L 45.011424 54.112968 
L 47.139238 52.693972 
L 49.267052 51.275782 
L 51.394866 49.858541 
L 53.52268 48.442421 
L 55.650494 47.027638 
L 57.778308 45.614467 
L 59.906122 44.203269 
L 62.033936 42.794537 
L 64.16175 41.388974 
L 66.289564 39.98765 
L 68.417378 38.592329 
L 70.545192 37.20624 
L 72.673006 35.836257 
L 74.80082 34.500375 
L 76.928634 33.252138 
L 79.056448 32.182198 
L 81.184262 31.315027 
L 83.312075 30.616364 
L 85.439889 30.04891 
L 87.567703 29.583648 
L 89.695517 29.198947 
L 91.823331 28.878595 
L 93.951145 28.610256 
L 96.078959 28.384388 
L 98.206773 28.193498 
L 100.334587 28.031624 
L 102.462401 27.893968 
L 104.590215 27.776628 
L 106.718029 27.676406 
L 108.845843 27.590658 
L 110.973657 27.517189 
L 113.101471 27.454163 
L 115.229285 27.400039 
L 117.357099 27.353518 
L 119.484913 27.313503 
L 121.612727 27.279059 
L 123.740541 27.249396 
L 125.868355 27.223837 
L 127.996169 27.201806 
L 130.123983 27.182808 
L 132.251797 27.166421 
" style="fill:none;stroke:#0e7b97;stroke-dasharray:4.81,2.08;stroke-dashoffset:0;stroke-width:1.3;"/>
   </g>
   <g id="patch_3">
    <path d="M 27.988912 86.080765 
L 27.988912 3.69 
" style="fill:none;stroke:#000000;stroke-linecap:square;stroke-linejoin:miter;"/>
   </g>
   <g id="patch_4">
    <path d="M 27.988912 86.080765 
L 132.251797 86.080765 
" style="fill:none;stroke:#000000;stroke-linecap:square;stroke-linejoin:miter;"/>
   </g>
   <g id="text_6">
    <!-- A -->
    <defs>
     <path d="M 71.828125 0 
L 56.109375 0 
L 49.859375 16.265625 
L 21.234375 16.265625 
L 15.328125 0 
L 0 0 
L 27.875 71.578125 
L 43.171875 71.578125 
z
M 45.21875 28.328125 
L 35.359375 54.890625 
L 25.6875 28.328125 
z
" id="Arial-BoldMT-65"/>
    </defs>
    <g transform="translate(14.434737 10.847813)scale(0.1 -0.1)">
     <use xlink:href="#Arial-BoldMT-65"/>
    </g>
   </g>
   <g id="legend_1">
    <g id="line2d_46">
     <path d="M 31.737412 71.096136 
L 41.108662 71.096136 
" style="fill:none;stroke:#0e1e97;stroke-linecap:round;stroke-width:1.3;"/>
    </g>
    <g id="line2d_47"/>
    <g id="text_7">
     <!-- $T_1$ -->
     <defs>
      <path d="M 5.90625 72.90625 
L 67.578125 72.90625 
L 66.015625 64.59375 
L 39.984375 64.59375 
L 27.484375 0 
L 17.578125 0 
L 30.078125 64.59375 
L 4.296875 64.59375 
z
" id="DejaVuSans-Oblique-84"/>
      <path d="M 12.40625 8.296875 
L 28.515625 8.296875 
L 28.515625 63.921875 
L 10.984375 60.40625 
L 10.984375 69.390625 
L 28.421875 72.90625 
L 38.28125 72.90625 
L 38.28125 8.296875 
L 54.390625 8.296875 
L 54.390625 0 
L 12.40625 0 
z
" id="DejaVuSans-49"/>
     </defs>
     <g transform="translate(44.857162 73.720086)scale(0.07497 -0.07497)">
      <use transform="translate(0 0.09375)" xlink:href="#DejaVuSans-Oblique-84"/>
      <use transform="translate(61.083984 -16.3125)scale(0.7)" xlink:href="#DejaVuSans-49"/>
     </g>
    </g>
    <g id="line2d_48">
     <path d="M 31.737412 78.058975 
L 41.108662 78.058975 
" style="fill:none;stroke:#0e1e97;stroke-dasharray:4.81,2.08;stroke-dashoffset:0;stroke-width:1.3;"/>
    </g>
    <g id="line2d_49"/>
    <g id="text_8">
     <!-- only $T_1$ -->
     <defs>
      <path d="M 3.328125 25.921875 
Q 3.328125 40.328125 11.328125 47.265625 
Q 18.015625 53.03125 27.640625 53.03125 
Q 38.328125 53.03125 45.109375 46.015625 
Q 51.90625 39.015625 51.90625 26.65625 
Q 51.90625 16.65625 48.90625 10.90625 
Q 45.90625 5.171875 40.15625 2 
Q 34.421875 -1.171875 27.640625 -1.171875 
Q 16.75 -1.171875 10.03125 5.8125 
Q 3.328125 12.796875 3.328125 25.921875 
z
M 12.359375 25.921875 
Q 12.359375 15.96875 16.703125 11.015625 
Q 21.046875 6.0625 27.640625 6.0625 
Q 34.1875 6.0625 38.53125 11.03125 
Q 42.875 16.015625 42.875 26.21875 
Q 42.875 35.84375 38.5 40.796875 
Q 34.125 45.75 27.640625 45.75 
Q 21.046875 45.75 16.703125 40.8125 
Q 12.359375 35.890625 12.359375 25.921875 
z
" id="ArialMT-111"/>
      <path d="M 6.59375 0 
L 6.59375 51.859375 
L 14.5 51.859375 
L 14.5 44.484375 
Q 20.21875 53.03125 31 53.03125 
Q 35.6875 53.03125 39.625 51.34375 
Q 43.5625 49.65625 45.515625 46.921875 
Q 47.46875 44.1875 48.25 40.4375 
Q 48.734375 37.984375 48.734375 31.890625 
L 48.734375 0 
L 39.9375 0 
L 39.9375 31.546875 
Q 39.9375 36.921875 38.90625 39.578125 
Q 37.890625 42.234375 35.28125 43.8125 
Q 32.671875 45.40625 29.15625 45.40625 
Q 23.53125 45.40625 19.453125 41.84375 
Q 15.375 38.28125 15.375 28.328125 
L 15.375 0 
z
" id="ArialMT-110"/>
      <path d="M 6.390625 0 
L 6.390625 71.578125 
L 15.1875 71.578125 
L 15.1875 0 
z
" id="ArialMT-108"/>
      <path d="M 6.203125 -19.96875 
L 5.21875 -11.71875 
Q 8.109375 -12.5 10.25 -12.5 
Q 13.1875 -12.5 14.9375 -11.515625 
Q 16.703125 -10.546875 17.828125 -8.796875 
Q 18.65625 -7.46875 20.515625 -2.25 
Q 20.75 -1.515625 21.296875 -0.09375 
L 1.609375 51.859375 
L 11.078125 51.859375 
L 21.875 21.828125 
Q 23.96875 16.109375 25.640625 9.8125 
Q 27.15625 15.875 29.25 21.625 
L 40.328125 51.859375 
L 49.125 51.859375 
L 29.390625 -0.875 
Q 26.21875 -9.421875 24.46875 -12.640625 
Q 22.125 -17 19.09375 -19.015625 
Q 16.0625 -21.046875 11.859375 -21.046875 
Q 9.328125 -21.046875 6.203125 -19.96875 
z
" id="ArialMT-121"/>
      <path id="ArialMT-32"/>
     </defs>
     <g transform="translate(44.857162 80.682925)scale(0.07497 -0.07497)">
      <use transform="translate(0 0.09375)" xlink:href="#ArialMT-111"/>
      <use transform="translate(55.615234 0.09375)" xlink:href="#ArialMT-110"/>
      <use transform="translate(111.230469 0.09375)" xlink:href="#ArialMT-108"/>
      <use transform="translate(133.447266 0.09375)" xlink:href="#ArialMT-121"/>
      <use transform="translate(183.447266 0.09375)" xlink:href="#ArialMT-32"/>
      <use transform="translate(211.230469 0.09375)" xlink:href="#DejaVuSans-Oblique-84"/>
      <use transform="translate(272.314453 -16.3125)scale(0.7)" xlink:href="#DejaVuSans-49"/>
     </g>
    </g>
    <g id="line2d_50">
     <path d="M 70.721812 71.096136 
L 80.093062 71.096136 
" style="fill:none;stroke:#0e7b97;stroke-linecap:round;stroke-width:1.3;"/>
    </g>
    <g id="line2d_51"/>
    <g id="text_9">
     <!-- $T_2$ -->
     <defs>
      <path d="M 19.1875 8.296875 
L 53.609375 8.296875 
L 53.609375 0 
L 7.328125 0 
L 7.328125 8.296875 
Q 12.9375 14.109375 22.625 23.890625 
Q 32.328125 33.6875 34.8125 36.53125 
Q 39.546875 41.84375 41.421875 45.53125 
Q 43.3125 49.21875 43.3125 52.78125 
Q 43.3125 58.59375 39.234375 62.25 
Q 35.15625 65.921875 28.609375 65.921875 
Q 23.96875 65.921875 18.8125 64.3125 
Q 13.671875 62.703125 7.8125 59.421875 
L 7.8125 69.390625 
Q 13.765625 71.78125 18.9375 73 
Q 24.125 74.21875 28.421875 74.21875 
Q 39.75 74.21875 46.484375 68.546875 
Q 53.21875 62.890625 53.21875 53.421875 
Q 53.21875 48.921875 51.53125 44.890625 
Q 49.859375 40.875 45.40625 35.40625 
Q 44.1875 33.984375 37.640625 27.21875 
Q 31.109375 20.453125 19.1875 8.296875 
z
" id="DejaVuSans-50"/>
     </defs>
     <g transform="translate(83.841562 73.720086)scale(0.07497 -0.07497)">
      <use transform="translate(0 0.09375)" xlink:href="#DejaVuSans-Oblique-84"/>
      <use transform="translate(61.083984 -16.3125)scale(0.7)" xlink:href="#DejaVuSans-50"/>
     </g>
    </g>
    <g id="line2d_52">
     <path d="M 70.721812 78.058975 
L 80.093062 78.058975 
" style="fill:none;stroke:#0e7b97;stroke-dasharray:4.81,2.08;stroke-dashoffset:0;stroke-width:1.3;"/>
    </g>
    <g id="line2d_53"/>
    <g id="text_10">
     <!-- only $T_2$ -->
     <g transform="translate(83.841562 80.682925)scale(0.07497 -0.07497)">
      <use transform="translate(0 0.09375)" xlink:href="#ArialMT-111"/>
      <use transform="translate(55.615234 0.09375)" xlink:href="#ArialMT-110"/>
      <use transform="translate(111.230469 0.09375)" xlink:href="#ArialMT-108"/>
      <use transform="translate(133.447266 0.09375)" xlink:href="#ArialMT-121"/>
      <use transform="translate(183.447266 0.09375)" xlink:href="#ArialMT-32"/>
      <use transform="translate(211.230469 0.09375)" xlink:href="#DejaVuSans-Oblique-84"/>
      <use transform="translate(272.314453 -16.3125)scale(0.7)" xlink:href="#DejaVuSans-50"/>
     </g>
    </g>
   </g>
   <g id="legend_2">
    <g id="line2d_54">
     <path d="M 61.065089 10.272132 
L 70.436339 10.272132 
" style="fill:none;stroke:#d62728;stroke-dasharray:1.3,2.145;stroke-dashoffset:0;stroke-width:1.3;"/>
    </g>
    <g id="line2d_55"/>
    <g id="text_11">
     <!-- pMHCs -->
     <defs>
      <path d="M 6.59375 -19.875 
L 6.59375 51.859375 
L 14.59375 51.859375 
L 14.59375 45.125 
Q 17.4375 49.078125 21 51.046875 
Q 24.5625 53.03125 29.640625 53.03125 
Q 36.28125 53.03125 41.359375 49.609375 
Q 46.4375 46.1875 49.015625 39.953125 
Q 51.609375 33.734375 51.609375 26.3125 
Q 51.609375 18.359375 48.75 11.984375 
Q 45.90625 5.609375 40.453125 2.21875 
Q 35.015625 -1.171875 29 -1.171875 
Q 24.609375 -1.171875 21.109375 0.6875 
Q 17.625 2.546875 15.375 5.375 
L 15.375 -19.875 
z
M 14.546875 25.640625 
Q 14.546875 15.625 18.59375 10.84375 
Q 22.65625 6.0625 28.421875 6.0625 
Q 34.28125 6.0625 38.453125 11.015625 
Q 42.625 15.96875 42.625 26.375 
Q 42.625 36.28125 38.546875 41.203125 
Q 34.46875 46.140625 28.8125 46.140625 
Q 23.1875 46.140625 18.859375 40.890625 
Q 14.546875 35.640625 14.546875 25.640625 
z
" id="ArialMT-112"/>
      <path d="M 7.421875 0 
L 7.421875 71.578125 
L 21.6875 71.578125 
L 38.625 20.90625 
Q 40.96875 13.8125 42.046875 10.296875 
Q 43.265625 14.203125 45.84375 21.78125 
L 62.984375 71.578125 
L 75.734375 71.578125 
L 75.734375 0 
L 66.609375 0 
L 66.609375 59.90625 
L 45.796875 0 
L 37.25 0 
L 16.546875 60.9375 
L 16.546875 0 
z
" id="ArialMT-77"/>
      <path d="M 8.015625 0 
L 8.015625 71.578125 
L 17.484375 71.578125 
L 17.484375 42.1875 
L 54.6875 42.1875 
L 54.6875 71.578125 
L 64.15625 71.578125 
L 64.15625 0 
L 54.6875 0 
L 54.6875 33.734375 
L 17.484375 33.734375 
L 17.484375 0 
z
" id="ArialMT-72"/>
      <path d="M 58.796875 25.09375 
L 68.265625 22.703125 
Q 65.28125 11.03125 57.546875 4.90625 
Q 49.8125 -1.21875 38.625 -1.21875 
Q 27.046875 -1.21875 19.796875 3.484375 
Q 12.546875 8.203125 8.765625 17.140625 
Q 4.984375 26.078125 4.984375 36.328125 
Q 4.984375 47.515625 9.25 55.828125 
Q 13.53125 64.15625 21.40625 68.46875 
Q 29.296875 72.796875 38.765625 72.796875 
Q 49.515625 72.796875 56.828125 67.328125 
Q 64.15625 61.859375 67.046875 51.953125 
L 57.71875 49.75 
Q 55.21875 57.5625 50.484375 61.125 
Q 45.75 64.703125 38.578125 64.703125 
Q 30.328125 64.703125 24.78125 60.734375 
Q 19.234375 56.78125 16.984375 50.109375 
Q 14.75 43.453125 14.75 36.375 
Q 14.75 27.25 17.40625 20.4375 
Q 20.0625 13.625 25.671875 10.25 
Q 31.296875 6.890625 37.84375 6.890625 
Q 45.796875 6.890625 51.3125 11.46875 
Q 56.84375 16.0625 58.796875 25.09375 
z
" id="ArialMT-67"/>
      <path d="M 3.078125 15.484375 
L 11.765625 16.84375 
Q 12.5 11.625 15.84375 8.84375 
Q 19.1875 6.0625 25.203125 6.0625 
Q 31.25 6.0625 34.171875 8.515625 
Q 37.109375 10.984375 37.109375 14.3125 
Q 37.109375 17.28125 34.515625 19 
Q 32.71875 20.171875 25.53125 21.96875 
Q 15.875 24.421875 12.140625 26.203125 
Q 8.40625 27.984375 6.46875 31.125 
Q 4.546875 34.28125 4.546875 38.09375 
Q 4.546875 41.546875 6.125 44.5 
Q 7.71875 47.46875 10.453125 49.421875 
Q 12.5 50.921875 16.03125 51.96875 
Q 19.578125 53.03125 23.640625 53.03125 
Q 29.734375 53.03125 34.34375 51.265625 
Q 38.96875 49.515625 41.15625 46.5 
Q 43.359375 43.5 44.1875 38.484375 
L 35.59375 37.3125 
Q 35.015625 41.3125 32.203125 43.546875 
Q 29.390625 45.796875 24.265625 45.796875 
Q 18.21875 45.796875 15.625 43.796875 
Q 13.03125 41.796875 13.03125 39.109375 
Q 13.03125 37.40625 14.109375 36.03125 
Q 15.1875 34.625 17.484375 33.6875 
Q 18.796875 33.203125 25.25 31.453125 
Q 34.578125 28.953125 38.25 27.359375 
Q 41.9375 25.78125 44.03125 22.75 
Q 46.140625 19.734375 46.140625 15.234375 
Q 46.140625 10.84375 43.578125 6.953125 
Q 41.015625 3.078125 36.171875 0.953125 
Q 31.34375 -1.171875 25.25 -1.171875 
Q 15.140625 -1.171875 9.84375 3.03125 
Q 4.546875 7.234375 3.078125 15.484375 
z
" id="ArialMT-115"/>
     </defs>
     <g transform="translate(74.184839 12.896082)scale(0.07497 -0.07497)">
      <use xlink:href="#ArialMT-112"/>
      <use x="55.615234" xlink:href="#ArialMT-77"/>
      <use x="138.916016" xlink:href="#ArialMT-72"/>
      <use x="211.132812" xlink:href="#ArialMT-67"/>
      <use x="283.349609" xlink:href="#ArialMT-115"/>
     </g>
    </g>
   </g>
  </g>
  <g id="axes_2">
   <g id="patch_5">
    <path d="M 147.647115 86.080765 
L 251.91 86.080765 
L 251.91 3.69 
L 147.647115 3.69 
z
" style="fill:#ffffff;"/>
   </g>
   <g id="matplotlib.axis_3">
    <g id="xtick_5">
     <g id="line2d_56">
      <g>
       <use style="stroke:#000000;stroke-width:0.8;" x="147.647115" xlink:href="#mcf518a9907" y="86.080765"/>
      </g>
     </g>
    </g>
    <g id="xtick_6">
     <g id="line2d_57">
      <g>
       <use style="stroke:#000000;stroke-width:0.8;" x="179.728003" xlink:href="#mcf518a9907" y="86.080765"/>
      </g>
     </g>
    </g>
    <g id="xtick_7">
     <g id="line2d_58">
      <g>
       <use style="stroke:#000000;stroke-width:0.8;" x="211.80889" xlink:href="#mcf518a9907" y="86.080765"/>
      </g>
     </g>
    </g>
    <g id="xtick_8">
     <g id="line2d_59">
      <g>
       <use style="stroke:#000000;stroke-width:0.8;" x="243.889778" xlink:href="#mcf518a9907" y="86.080765"/>
      </g>
     </g>
    </g>
   </g>
   <g id="matplotlib.axis_4">
    <g id="ytick_37">
     <g id="line2d_60">
      <g>
       <use style="stroke:#000000;stroke-width:0.8;" x="147.647115" xlink:href="#mf7257a62e9" y="86.080765"/>
      </g>
     </g>
    </g>
    <g id="ytick_38">
     <g id="line2d_61">
      <g>
       <use style="stroke:#000000;stroke-width:0.8;" x="147.647115" xlink:href="#mf7257a62e9" y="65.483074"/>
      </g>
     </g>
    </g>
    <g id="ytick_39">
     <g id="line2d_62">
      <g>
       <use style="stroke:#000000;stroke-width:0.8;" x="147.647115" xlink:href="#mf7257a62e9" y="44.885382"/>
      </g>
     </g>
    </g>
    <g id="ytick_40">
     <g id="line2d_63">
      <g>
       <use style="stroke:#000000;stroke-width:0.8;" x="147.647115" xlink:href="#mf7257a62e9" y="24.287691"/>
      </g>
     </g>
    </g>
    <g id="ytick_41">
     <g id="line2d_64"/>
    </g>
    <g id="ytick_42">
     <g id="line2d_65"/>
    </g>
    <g id="ytick_43">
     <g id="line2d_66"/>
    </g>
    <g id="ytick_44">
     <g id="line2d_67"/>
    </g>
    <g id="ytick_45">
     <g id="line2d_68"/>
    </g>
    <g id="ytick_46">
     <g id="line2d_69"/>
    </g>
    <g id="ytick_47">
     <g id="line2d_70"/>
    </g>
    <g id="ytick_48">
     <g id="line2d_71"/>
    </g>
    <g id="ytick_49">
     <g id="line2d_72"/>
    </g>
    <g id="ytick_50">
     <g id="line2d_73"/>
    </g>
    <g id="ytick_51">
     <g id="line2d_74"/>
    </g>
    <g id="ytick_52">
     <g id="line2d_75"/>
    </g>
    <g id="ytick_53">
     <g id="line2d_76"/>
    </g>
    <g id="ytick_54">
     <g id="line2d_77"/>
    </g>
    <g id="ytick_55">
     <g id="line2d_78"/>
    </g>
    <g id="ytick_56">
     <g id="line2d_79"/>
    </g>
    <g id="ytick_57">
     <g id="line2d_80"/>
    </g>
    <g id="ytick_58">
     <g id="line2d_81"/>
    </g>
    <g id="ytick_59">
     <g id="line2d_82"/>
    </g>
    <g id="ytick_60">
     <g id="line2d_83"/>
    </g>
    <g id="ytick_61">
     <g id="line2d_84"/>
    </g>
    <g id="ytick_62">
     <g id="line2d_85"/>
    </g>
    <g id="ytick_63">
     <g id="line2d_86"/>
    </g>
    <g id="ytick_64">
     <g id="line2d_87"/>
    </g>
    <g id="ytick_65">
     <g id="line2d_88"/>
    </g>
    <g id="ytick_66">
     <g id="line2d_89"/>
    </g>
    <g id="ytick_67">
     <g id="line2d_90"/>
    </g>
    <g id="ytick_68">
     <g id="line2d_91"/>
    </g>
    <g id="ytick_69">
     <g id="line2d_92"/>
    </g>
    <g id="ytick_70">
     <g id="line2d_93"/>
    </g>
    <g id="ytick_71">
     <g id="line2d_94"/>
    </g>
    <g id="ytick_72">
     <g id="line2d_95"/>
    </g>
   </g>
   <g id="line2d_96">
    <path clip-path="url(#pde2a716005)" d="M 147.647115 44.885382 
L 149.774929 43.461566 
L 151.902743 42.037775 
L 154.030557 40.614013 
L 156.158371 39.190287 
L 158.286185 37.766602 
L 160.413999 36.342969 
L 162.541813 34.919397 
L 164.669627 33.495903 
L 166.797441 32.072509 
L 168.925255 30.649251 
L 171.053069 29.226186 
L 173.180883 27.803426 
L 175.308697 26.381234 
L 177.436511 24.960535 
L 179.564325 23.556275 
L 181.692139 22.340706 
L 183.819953 21.386258 
L 185.947767 20.630807 
L 188.075581 20.023605 
L 190.203395 19.529146 
L 192.331209 19.122267 
L 194.459023 18.784648 
L 196.586837 18.50261 
L 198.714651 18.265713 
L 200.842465 18.06584 
L 202.970279 17.896578 
L 205.098093 17.7528 
L 207.225906 17.630353 
L 209.35372 17.525848 
L 211.481534 17.436494 
L 213.609348 17.359975 
L 215.737162 17.294362 
L 217.864976 17.238039 
L 219.99279 17.189643 
L 222.120604 17.148026 
L 224.248418 17.112213 
L 226.376232 17.081376 
L 228.504046 17.05481 
L 230.63186 17.031914 
L 232.759674 17.012174 
L 234.887488 16.995148 
L 237.015302 16.980459 
L 239.143116 16.967784 
L 241.27093 16.956844 
L 243.398744 16.9474 
L 245.526558 16.939247 
L 247.654372 16.932206 
L 249.782186 16.926126 
L 251.91 16.920874 
" style="fill:none;stroke:#0e1e97;stroke-linecap:round;stroke-width:1.3;"/>
   </g>
   <g id="line2d_97">
    <path clip-path="url(#pde2a716005)" d="M 147.647115 65.483074 
L 149.774929 64.060653 
L 151.902743 62.638485 
L 154.030557 61.216613 
L 156.158371 59.795091 
L 158.286185 58.373987 
L 160.413999 56.953388 
L 162.541813 55.533407 
L 164.669627 54.114199 
L 166.797441 52.695988 
L 168.925255 51.279117 
L 171.053069 49.864162 
L 173.180883 48.45222 
L 175.308697 47.045843 
L 177.436511 45.653899 
L 179.564325 44.393538 
L 181.692139 43.831536 
L 183.819953 43.586354 
L 185.947767 43.440691 
L 188.075581 43.341783 
L 190.203395 43.269702 
L 192.331209 43.214851 
L 194.459023 43.171889 
L 196.586837 43.137543 
L 198.714651 43.109668 
L 200.842465 43.086781 
L 202.970279 43.067822 
L 205.098093 43.052003 
L 207.225906 43.038729 
L 209.35372 43.027537 
L 211.481534 43.018066 
L 213.609348 43.010024 
L 215.737162 43.003179 
L 217.864976 42.997338 
L 219.99279 42.992345 
L 222.120604 42.988071 
L 224.248418 42.984407 
L 226.376232 42.981262 
L 228.504046 42.978559 
L 230.63186 42.976236 
L 232.759674 42.974237 
L 234.887488 42.972516 
L 237.015302 42.971033 
L 239.143116 42.969756 
L 241.27093 42.968654 
L 243.398744 42.967704 
L 245.526558 42.966884 
L 247.654372 42.966177 
L 249.782186 42.965567 
L 251.91 42.96504 
" style="fill:none;stroke:#0e7b97;stroke-linecap:round;stroke-width:1.3;"/>
   </g>
   <g id="line2d_98">
    <path clip-path="url(#pde2a716005)" d="M 147.647115 3.69 
L 149.774929 4.995307 
L 151.902743 6.300615 
L 154.030557 7.605922 
L 156.158371 8.91123 
L 158.286185 10.216537 
L 160.413999 11.521845 
L 162.541813 12.827152 
L 164.669627 14.13246 
L 166.797441 15.437767 
L 168.925255 16.743074 
L 171.053069 18.048382 
L 173.180883 19.353689 
L 175.308697 20.658997 
L 177.436511 21.964304 
L 179.564325 23.269612 
L 181.692139 24.574919 
L 183.819953 25.880226 
L 185.947767 27.185534 
L 188.075581 28.490841 
L 190.203395 29.796149 
L 192.331209 31.101456 
L 194.459023 32.406764 
L 196.586837 33.712071 
L 198.714651 35.017378 
L 200.842465 36.322686 
L 202.970279 37.627993 
L 205.098093 38.933301 
L 207.225906 40.238608 
L 209.35372 41.543916 
L 211.481534 42.849223 
L 213.609348 44.15453 
L 215.737162 45.459838 
L 217.864976 46.765145 
L 219.99279 48.070453 
L 222.120604 49.37576 
L 224.248418 50.681067 
L 226.376232 51.986375 
L 228.504046 53.291682 
L 230.63186 54.59699 
L 232.759674 55.902297 
L 234.887488 57.207605 
L 237.015302 58.512912 
L 239.143116 59.818219 
L 241.27093 61.123527 
L 243.398744 62.428834 
L 245.526558 63.734142 
L 247.654372 65.039449 
L 249.782186 66.344756 
L 251.91 67.650064 
" style="fill:none;stroke:#d62728;stroke-dasharray:1.3,2.145;stroke-dashoffset:0;stroke-width:1.3;"/>
   </g>
   <g id="line2d_99">
    <path clip-path="url(#pde2a716005)" d="M 147.647115 44.885382 
L 149.774929 43.461566 
L 151.902743 42.037774 
L 154.030557 40.614012 
L 156.158371 39.190285 
L 158.286185 37.766599 
L 160.413999 36.342964 
L 162.541813 34.919389 
L 164.669627 33.49589 
L 166.797441 32.072487 
L 168.925255 30.649213 
L 171.053069 29.226118 
L 173.180883 27.803297 
L 175.308697 26.380955 
L 177.436511 24.959707 
L 179.564325 23.54467 
L 181.692139 22.287947 
L 183.819953 21.318852 
L 185.947767 20.557661 
L 188.075581 19.948047 
L 190.203395 19.452626 
L 192.331209 19.045467 
L 194.459023 18.707898 
L 196.586837 18.426068 
L 198.714651 18.189446 
L 200.842465 17.989868 
L 202.970279 17.820898 
L 205.098093 17.677394 
L 207.225906 17.5552 
L 209.35372 17.450924 
L 211.481534 17.361773 
L 213.609348 17.285434 
L 215.737162 17.219981 
L 217.864976 17.163797 
L 219.99279 17.115524 
L 222.120604 17.074013 
L 224.248418 17.038293 
L 226.376232 17.007537 
L 228.504046 16.981042 
L 230.63186 16.958207 
L 232.759674 16.938519 
L 234.887488 16.921539 
L 237.015302 16.90689 
L 239.143116 16.89425 
L 241.27093 16.88334 
L 243.398744 16.873922 
L 245.526558 16.86579 
L 247.654372 16.858769 
L 249.782186 16.852705 
L 251.91 16.847468 
" style="fill:none;stroke:#0e1e97;stroke-dasharray:4.81,2.08;stroke-dashoffset:0;stroke-width:1.3;"/>
   </g>
   <g id="line2d_100">
    <path clip-path="url(#pde2a716005)" d="M 147.647115 65.483074 
L 149.774929 64.060635 
L 151.902743 62.638438 
L 154.030557 61.21652 
L 156.158371 59.794927 
L 158.286185 58.373709 
L 160.413999 56.952927 
L 162.541813 55.532652 
L 164.669627 54.112968 
L 166.797441 52.693972 
L 168.925255 51.275782 
L 171.053069 49.858541 
L 173.180883 48.442421 
L 175.308697 47.027638 
L 177.436511 45.614467 
L 179.564325 44.203269 
L 181.692139 42.794537 
L 183.819953 41.388974 
L 185.947767 39.98765 
L 188.075581 38.592329 
L 190.203395 37.20624 
L 192.331209 35.836257 
L 194.459023 34.500375 
L 196.586837 33.252138 
L 198.714651 32.182198 
L 200.842465 31.315027 
L 202.970279 30.616364 
L 205.098093 30.04891 
L 207.225906 29.583648 
L 209.35372 29.198947 
L 211.481534 28.878595 
L 213.609348 28.610256 
L 215.737162 28.384388 
L 217.864976 28.193498 
L 219.99279 28.031624 
L 222.120604 27.893968 
L 224.248418 27.776628 
L 226.376232 27.676406 
L 228.504046 27.590658 
L 230.63186 27.517189 
L 232.759674 27.454163 
L 234.887488 27.400039 
L 237.015302 27.353518 
L 239.143116 27.313503 
L 241.27093 27.279059 
L 243.398744 27.249396 
L 245.526558 27.223837 
L 247.654372 27.201806 
L 249.782186 27.182808 
L 251.91 27.166421 
" style="fill:none;stroke:#0e7b97;stroke-dasharray:4.81,2.08;stroke-dashoffset:0;stroke-width:1.3;"/>
   </g>
   <g id="patch_6">
    <path d="M 147.647115 86.080765 
L 147.647115 3.69 
" style="fill:none;stroke:#000000;stroke-linecap:square;stroke-linejoin:miter;"/>
   </g>
   <g id="patch_7">
    <path d="M 147.647115 86.080765 
L 251.91 86.080765 
" style="fill:none;stroke:#000000;stroke-linecap:square;stroke-linejoin:miter;"/>
   </g>
   <g id="text_12">
    <!-- B -->
    <defs>
     <path d="M 7.328125 71.578125 
L 35.9375 71.578125 
Q 44.4375 71.578125 48.609375 70.875 
Q 52.78125 70.171875 56.078125 67.921875 
Q 59.375 65.671875 61.5625 61.9375 
Q 63.765625 58.203125 63.765625 53.5625 
Q 63.765625 48.53125 61.046875 44.328125 
Q 58.34375 40.140625 53.71875 38.03125 
Q 60.25 36.140625 63.765625 31.546875 
Q 67.28125 26.953125 67.28125 20.75 
Q 67.28125 15.875 65.015625 11.25 
Q 62.75 6.640625 58.8125 3.875 
Q 54.890625 1.125 49.125 0.484375 
Q 45.515625 0.09375 31.6875 0 
L 7.328125 0 
z
M 21.78125 59.671875 
L 21.78125 43.109375 
L 31.25 43.109375 
Q 39.703125 43.109375 41.75 43.359375 
Q 45.453125 43.796875 47.578125 45.921875 
Q 49.703125 48.046875 49.703125 51.515625 
Q 49.703125 54.828125 47.875 56.90625 
Q 46.046875 58.984375 42.4375 59.421875 
Q 40.28125 59.671875 30.078125 59.671875 
z
M 21.78125 31.203125 
L 21.78125 12.0625 
L 35.15625 12.0625 
Q 42.96875 12.0625 45.0625 12.5 
Q 48.296875 13.09375 50.3125 15.359375 
Q 52.34375 17.625 52.34375 21.4375 
Q 52.34375 24.65625 50.78125 26.90625 
Q 49.21875 29.15625 46.265625 30.171875 
Q 43.3125 31.203125 33.453125 31.203125 
z
" id="Arial-BoldMT-66"/>
    </defs>
    <g transform="translate(134.09294 10.847813)scale(0.1 -0.1)">
     <use xlink:href="#Arial-BoldMT-66"/>
    </g>
   </g>
  </g>
  <g id="axes_3">
   <g id="patch_8">
    <path d="M 27.988912 178.95 
L 132.251797 178.95 
L 132.251797 96.559235 
L 27.988912 96.559235 
z
" style="fill:#ffffff;"/>
   </g>
   <g id="matplotlib.axis_5">
    <g id="xtick_9">
     <g id="line2d_101">
      <g>
       <use style="stroke:#000000;stroke-width:0.8;" x="27.988912" xlink:href="#mcf518a9907" y="178.95"/>
      </g>
     </g>
     <g id="text_13">
      <!-- 0 -->
      <g transform="translate(25.904395 188.816212)scale(0.07497 -0.07497)">
       <use xlink:href="#ArialMT-48"/>
      </g>
     </g>
    </g>
    <g id="xtick_10">
     <g id="line2d_102">
      <g>
       <use style="stroke:#000000;stroke-width:0.8;" x="60.0698" xlink:href="#mcf518a9907" y="178.95"/>
      </g>
     </g>
     <g id="text_14">
      <!-- 2 -->
      <g transform="translate(57.985282 188.816212)scale(0.07497 -0.07497)">
       <use xlink:href="#ArialMT-50"/>
      </g>
     </g>
    </g>
    <g id="xtick_11">
     <g id="line2d_103">
      <g>
       <use style="stroke:#000000;stroke-width:0.8;" x="92.150687" xlink:href="#mcf518a9907" y="178.95"/>
      </g>
     </g>
     <g id="text_15">
      <!-- 4 -->
      <defs>
       <path d="M 32.328125 0 
L 32.328125 17.140625 
L 1.265625 17.140625 
L 1.265625 25.203125 
L 33.9375 71.578125 
L 41.109375 71.578125 
L 41.109375 25.203125 
L 50.78125 25.203125 
L 50.78125 17.140625 
L 41.109375 17.140625 
L 41.109375 0 
z
M 32.328125 25.203125 
L 32.328125 57.46875 
L 9.90625 25.203125 
z
" id="ArialMT-52"/>
      </defs>
      <g transform="translate(90.06617 188.816212)scale(0.07497 -0.07497)">
       <use xlink:href="#ArialMT-52"/>
      </g>
     </g>
    </g>
    <g id="xtick_12">
     <g id="line2d_104">
      <g>
       <use style="stroke:#000000;stroke-width:0.8;" x="124.231575" xlink:href="#mcf518a9907" y="178.95"/>
      </g>
     </g>
     <g id="text_16">
      <!-- 6 -->
      <defs>
       <path d="M 49.75 54.046875 
L 41.015625 53.375 
Q 39.84375 58.546875 37.703125 60.890625 
Q 34.125 64.65625 28.90625 64.65625 
Q 24.703125 64.65625 21.53125 62.3125 
Q 17.390625 59.28125 14.984375 53.46875 
Q 12.59375 47.65625 12.5 36.921875 
Q 15.671875 41.75 20.265625 44.09375 
Q 24.859375 46.4375 29.890625 46.4375 
Q 38.671875 46.4375 44.84375 39.96875 
Q 51.03125 33.5 51.03125 23.25 
Q 51.03125 16.5 48.125 10.71875 
Q 45.21875 4.9375 40.140625 1.859375 
Q 35.0625 -1.21875 28.609375 -1.21875 
Q 17.625 -1.21875 10.6875 6.859375 
Q 3.765625 14.9375 3.765625 33.5 
Q 3.765625 54.25 11.421875 63.671875 
Q 18.109375 71.875 29.4375 71.875 
Q 37.890625 71.875 43.28125 67.140625 
Q 48.6875 62.40625 49.75 54.046875 
z
M 13.875 23.1875 
Q 13.875 18.65625 15.796875 14.5 
Q 17.71875 10.359375 21.1875 8.171875 
Q 24.65625 6 28.46875 6 
Q 34.03125 6 38.03125 10.484375 
Q 42.046875 14.984375 42.046875 22.703125 
Q 42.046875 30.125 38.078125 34.390625 
Q 34.125 38.671875 28.125 38.671875 
Q 22.171875 38.671875 18.015625 34.390625 
Q 13.875 30.125 13.875 23.1875 
z
" id="ArialMT-54"/>
      </defs>
      <g transform="translate(122.147058 188.816212)scale(0.07497 -0.07497)">
       <use xlink:href="#ArialMT-54"/>
      </g>
     </g>
    </g>
    <g id="text_17">
     <!-- Time in days -->
     <defs>
      <path d="M 25.921875 0 
L 25.921875 63.140625 
L 2.34375 63.140625 
L 2.34375 71.578125 
L 59.078125 71.578125 
L 59.078125 63.140625 
L 35.40625 63.140625 
L 35.40625 0 
z
" id="ArialMT-84"/>
      <path d="M 6.640625 61.46875 
L 6.640625 71.578125 
L 15.4375 71.578125 
L 15.4375 61.46875 
z
M 6.640625 0 
L 6.640625 51.859375 
L 15.4375 51.859375 
L 15.4375 0 
z
" id="ArialMT-105"/>
      <path d="M 40.234375 0 
L 40.234375 6.546875 
Q 35.296875 -1.171875 25.734375 -1.171875 
Q 19.53125 -1.171875 14.328125 2.25 
Q 9.125 5.671875 6.265625 11.796875 
Q 3.421875 17.921875 3.421875 25.875 
Q 3.421875 33.640625 6 39.96875 
Q 8.59375 46.296875 13.765625 49.65625 
Q 18.953125 53.03125 25.34375 53.03125 
Q 30.03125 53.03125 33.6875 51.046875 
Q 37.359375 49.078125 39.65625 45.90625 
L 39.65625 71.578125 
L 48.390625 71.578125 
L 48.390625 0 
z
M 12.453125 25.875 
Q 12.453125 15.921875 16.640625 10.984375 
Q 20.84375 6.0625 26.5625 6.0625 
Q 32.328125 6.0625 36.34375 10.765625 
Q 40.375 15.484375 40.375 25.140625 
Q 40.375 35.796875 36.265625 40.765625 
Q 32.171875 45.75 26.171875 45.75 
Q 20.3125 45.75 16.375 40.96875 
Q 12.453125 36.1875 12.453125 25.875 
z
" id="ArialMT-100"/>
      <path d="M 40.4375 6.390625 
Q 35.546875 2.25 31.03125 0.53125 
Q 26.515625 -1.171875 21.34375 -1.171875 
Q 12.796875 -1.171875 8.203125 3 
Q 3.609375 7.171875 3.609375 13.671875 
Q 3.609375 17.484375 5.34375 20.625 
Q 7.078125 23.78125 9.890625 25.6875 
Q 12.703125 27.59375 16.21875 28.5625 
Q 18.796875 29.25 24.03125 29.890625 
Q 34.671875 31.15625 39.703125 32.90625 
Q 39.75 34.71875 39.75 35.203125 
Q 39.75 40.578125 37.25 42.78125 
Q 33.890625 45.75 27.25 45.75 
Q 21.046875 45.75 18.09375 43.578125 
Q 15.140625 41.40625 13.71875 35.890625 
L 5.125 37.0625 
Q 6.296875 42.578125 8.984375 45.96875 
Q 11.671875 49.359375 16.75 51.1875 
Q 21.828125 53.03125 28.515625 53.03125 
Q 35.15625 53.03125 39.296875 51.46875 
Q 43.453125 49.90625 45.40625 47.53125 
Q 47.359375 45.171875 48.140625 41.546875 
Q 48.578125 39.3125 48.578125 33.453125 
L 48.578125 21.734375 
Q 48.578125 9.46875 49.140625 6.21875 
Q 49.703125 2.984375 51.375 0 
L 42.1875 0 
Q 40.828125 2.734375 40.4375 6.390625 
z
M 39.703125 26.03125 
Q 34.90625 24.078125 25.34375 22.703125 
Q 19.921875 21.921875 17.671875 20.9375 
Q 15.4375 19.96875 14.203125 18.09375 
Q 12.984375 16.21875 12.984375 13.921875 
Q 12.984375 10.40625 15.640625 8.0625 
Q 18.3125 5.71875 23.4375 5.71875 
Q 28.515625 5.71875 32.46875 7.9375 
Q 36.421875 10.15625 38.28125 14.015625 
Q 39.703125 17 39.703125 22.796875 
z
" id="ArialMT-97"/>
     </defs>
     <g transform="translate(58.875145 197.172453)scale(0.07497 -0.07497)">
      <use xlink:href="#ArialMT-84"/>
      <use x="61.037109" xlink:href="#ArialMT-105"/>
      <use x="83.253906" xlink:href="#ArialMT-109"/>
      <use x="166.554688" xlink:href="#ArialMT-101"/>
      <use x="222.169922" xlink:href="#ArialMT-32"/>
      <use x="249.953125" xlink:href="#ArialMT-105"/>
      <use x="272.169922" xlink:href="#ArialMT-110"/>
      <use x="327.785156" xlink:href="#ArialMT-32"/>
      <use x="355.568359" xlink:href="#ArialMT-100"/>
      <use x="411.183594" xlink:href="#ArialMT-97"/>
      <use x="466.798828" xlink:href="#ArialMT-121"/>
      <use x="516.798828" xlink:href="#ArialMT-115"/>
     </g>
    </g>
   </g>
   <g id="matplotlib.axis_6">
    <g id="ytick_73">
     <g id="line2d_105">
      <g>
       <use style="stroke:#000000;stroke-width:0.8;" x="27.988912" xlink:href="#mf7257a62e9" y="178.95"/>
      </g>
     </g>
     <g id="text_18">
      <!-- $\mathdefault{10^{0}}$ -->
      <g transform="translate(11.718622 182.815641)scale(0.07497 -0.07497)">
       <use transform="translate(0 0.99375)" xlink:href="#ArialMT-49"/>
       <use transform="translate(55.615234 0.99375)" xlink:href="#ArialMT-48"/>
       <use transform="translate(112.972813 70.6875)scale(0.7)" xlink:href="#ArialMT-48"/>
      </g>
     </g>
    </g>
    <g id="ytick_74">
     <g id="line2d_106">
      <g>
       <use style="stroke:#000000;stroke-width:0.8;" x="27.988912" xlink:href="#mf7257a62e9" y="158.352309"/>
      </g>
     </g>
     <g id="text_19">
      <!-- $\mathdefault{10^{1}}$ -->
      <g transform="translate(11.718622 162.217949)scale(0.07497 -0.07497)">
       <use transform="translate(0 0.99375)" xlink:href="#ArialMT-49"/>
       <use transform="translate(55.615234 0.99375)" xlink:href="#ArialMT-48"/>
       <use transform="translate(112.972813 70.6875)scale(0.7)" xlink:href="#ArialMT-49"/>
      </g>
     </g>
    </g>
    <g id="ytick_75">
     <g id="line2d_107">
      <g>
       <use style="stroke:#000000;stroke-width:0.8;" x="27.988912" xlink:href="#mf7257a62e9" y="137.754618"/>
      </g>
     </g>
     <g id="text_20">
      <!-- $\mathdefault{10^{2}}$ -->
      <g transform="translate(11.718622 141.620258)scale(0.07497 -0.07497)">
       <use transform="translate(0 0.99375)" xlink:href="#ArialMT-49"/>
       <use transform="translate(55.615234 0.99375)" xlink:href="#ArialMT-48"/>
       <use transform="translate(112.972813 70.6875)scale(0.7)" xlink:href="#ArialMT-50"/>
      </g>
     </g>
    </g>
    <g id="ytick_76">
     <g id="line2d_108">
      <g>
       <use style="stroke:#000000;stroke-width:0.8;" x="27.988912" xlink:href="#mf7257a62e9" y="117.156926"/>
      </g>
     </g>
     <g id="text_21">
      <!-- $\mathdefault{10^{3}}$ -->
      <g transform="translate(11.718622 121.022567)scale(0.07497 -0.07497)">
       <use transform="translate(0 0.99375)" xlink:href="#ArialMT-49"/>
       <use transform="translate(55.615234 0.99375)" xlink:href="#ArialMT-48"/>
       <use transform="translate(112.972813 70.6875)scale(0.7)" xlink:href="#ArialMT-51"/>
      </g>
     </g>
    </g>
    <g id="ytick_77">
     <g id="line2d_109"/>
    </g>
    <g id="ytick_78">
     <g id="line2d_110"/>
    </g>
    <g id="ytick_79">
     <g id="line2d_111"/>
    </g>
    <g id="ytick_80">
     <g id="line2d_112"/>
    </g>
    <g id="ytick_81">
     <g id="line2d_113"/>
    </g>
    <g id="ytick_82">
     <g id="line2d_114"/>
    </g>
    <g id="ytick_83">
     <g id="line2d_115"/>
    </g>
    <g id="ytick_84">
     <g id="line2d_116"/>
    </g>
    <g id="ytick_85">
     <g id="line2d_117"/>
    </g>
    <g id="ytick_86">
     <g id="line2d_118"/>
    </g>
    <g id="ytick_87">
     <g id="line2d_119"/>
    </g>
    <g id="ytick_88">
     <g id="line2d_120"/>
    </g>
    <g id="ytick_89">
     <g id="line2d_121"/>
    </g>
    <g id="ytick_90">
     <g id="line2d_122"/>
    </g>
    <g id="ytick_91">
     <g id="line2d_123"/>
    </g>
    <g id="ytick_92">
     <g id="line2d_124"/>
    </g>
    <g id="ytick_93">
     <g id="line2d_125"/>
    </g>
    <g id="ytick_94">
     <g id="line2d_126"/>
    </g>
    <g id="ytick_95">
     <g id="line2d_127"/>
    </g>
    <g id="ytick_96">
     <g id="line2d_128"/>
    </g>
    <g id="ytick_97">
     <g id="line2d_129"/>
    </g>
    <g id="ytick_98">
     <g id="line2d_130"/>
    </g>
    <g id="ytick_99">
     <g id="line2d_131"/>
    </g>
    <g id="ytick_100">
     <g id="line2d_132"/>
    </g>
    <g id="ytick_101">
     <g id="line2d_133"/>
    </g>
    <g id="ytick_102">
     <g id="line2d_134"/>
    </g>
    <g id="ytick_103">
     <g id="line2d_135"/>
    </g>
    <g id="ytick_104">
     <g id="line2d_136"/>
    </g>
    <g id="ytick_105">
     <g id="line2d_137"/>
    </g>
    <g id="ytick_106">
     <g id="line2d_138"/>
    </g>
    <g id="ytick_107">
     <g id="line2d_139"/>
    </g>
    <g id="ytick_108">
     <g id="line2d_140"/>
    </g>
    <g id="text_22">
     <!-- Number -->
     <g transform="translate(8.728593 151.085806)rotate(-90)scale(0.07497 -0.07497)">
      <use xlink:href="#ArialMT-78"/>
      <use x="72.216797" xlink:href="#ArialMT-117"/>
      <use x="127.832031" xlink:href="#ArialMT-109"/>
      <use x="211.132812" xlink:href="#ArialMT-98"/>
      <use x="266.748047" xlink:href="#ArialMT-101"/>
      <use x="322.363281" xlink:href="#ArialMT-114"/>
     </g>
    </g>
   </g>
   <g id="line2d_141">
    <path clip-path="url(#pdcd2d889c7)" d="M 27.988912 158.352309 
L 30.116726 157.330736 
L 32.24454 156.153427 
L 34.372354 154.870277 
L 36.500168 153.524841 
L 38.627982 152.145265 
L 40.755796 150.74716 
L 42.88361 149.33874 
L 45.011424 147.924368 
L 47.139238 146.506444 
L 49.267052 145.08634 
L 51.394866 143.66487 
L 53.52268 142.242532 
L 55.650494 140.819633 
L 57.778308 139.396369 
L 59.906122 137.972867 
L 62.033936 136.549207 
L 64.16175 135.125443 
L 66.289564 133.70161 
L 68.417378 132.277731 
L 70.545192 130.853821 
L 72.673006 129.429891 
L 74.80082 128.005947 
L 76.928634 126.581994 
L 79.056448 125.158035 
L 81.184262 123.734071 
L 83.312075 122.310105 
L 85.439889 120.886137 
L 87.567703 119.462168 
L 89.695517 118.038198 
L 91.823331 116.614227 
L 93.951145 115.190256 
L 96.078959 113.766285 
L 98.206773 112.342314 
L 100.334587 110.918342 
L 102.462401 109.49437 
L 104.590215 108.070399 
L 106.718029 106.646427 
L 108.845843 105.222455 
L 110.973657 103.798484 
L 113.101471 102.374512 
L 115.229285 100.95054 
L 117.357099 99.526568 
L 119.484913 98.102597 
L 121.612727 96.678625 
L 123.740541 95.254653 
L 125.868355 93.830681 
L 127.996169 92.406709 
L 130.123983 90.982737 
L 132.251797 89.558766 
" style="fill:none;stroke:#0e1e97;stroke-linecap:round;stroke-width:1.3;"/>
   </g>
   <g id="line2d_142">
    <path clip-path="url(#pdcd2d889c7)" d="M 27.988912 158.352309 
L 30.116726 158.060227 
L 32.24454 157.594699 
L 34.372354 156.910624 
L 36.500168 156.008249 
L 38.627982 154.929446 
L 40.755796 153.727187 
L 42.88361 152.444586 
L 45.011424 151.111031 
L 47.139238 149.745269 
L 49.267052 148.359039 
L 51.394866 146.959696 
L 53.52268 145.551887 
L 55.650494 144.138569 
L 57.778308 142.721647 
L 59.906122 141.302355 
L 62.033936 139.881497 
L 64.16175 138.4596 
L 66.289564 137.037014 
L 68.417378 135.613969 
L 70.545192 134.190617 
L 72.673006 132.76706 
L 74.80082 131.343367 
L 76.928634 129.919581 
L 79.056448 128.495735 
L 81.184262 127.071847 
L 83.312075 125.647931 
L 85.439889 124.223997 
L 87.567703 122.800051 
L 89.695517 121.376096 
L 91.823331 119.952136 
L 93.951145 118.528172 
L 96.078959 117.104205 
L 98.206773 115.680237 
L 100.334587 114.256268 
L 102.462401 112.832297 
L 104.590215 111.408327 
L 106.718029 109.984356 
L 108.845843 108.560384 
L 110.973657 107.136413 
L 113.101471 105.712441 
L 115.229285 104.28847 
L 117.357099 102.864498 
L 119.484913 101.440526 
L 121.612727 100.016555 
L 123.740541 98.592583 
L 125.868355 97.168611 
L 127.996169 95.74464 
L 130.123983 94.320668 
L 132.251797 92.896696 
" style="fill:none;stroke:#0e7b97;stroke-linecap:round;stroke-width:1.3;"/>
   </g>
   <g id="line2d_143">
    <path clip-path="url(#pdcd2d889c7)" d="M 27.988912 158.352309 
L 30.116726 154.792379 
L 32.24454 151.23245 
L 34.372354 147.67252 
L 36.500168 144.112591 
L 38.627982 140.552661 
L 40.755796 136.992732 
L 42.88361 133.432802 
L 45.011424 129.872873 
L 47.139238 126.312943 
L 49.267052 122.753014 
L 51.394866 119.193084 
L 53.52268 115.633155 
L 55.650494 112.073225 
L 57.778308 108.513296 
L 59.906122 104.953366 
L 62.033936 101.393437 
L 64.16175 97.833507 
L 66.289564 94.273577 
L 68.417378 90.713648 
L 70.545192 87.153718 
L 72.673006 83.593789 
L 74.80082 80.033859 
L 76.928634 76.47393 
L 79.056448 72.914 
L 81.184262 69.354071 
L 83.312075 65.794141 
L 85.439889 62.234212 
L 87.567703 58.674282 
L 89.695517 55.114353 
L 91.823331 51.554423 
L 93.951145 47.994494 
L 96.078959 44.434564 
L 98.206773 40.874635 
L 100.334587 37.314705 
L 102.462401 33.754776 
L 104.590215 30.194846 
L 106.718029 26.634917 
L 108.845843 23.074987 
L 110.973657 19.515058 
L 113.101471 15.955128 
L 115.229285 12.395199 
L 117.357099 8.835269 
L 119.484913 5.275339 
L 121.612727 1.71541 
L 123.235761 -1 
" style="fill:none;stroke:#d62728;stroke-dasharray:1.3,2.145;stroke-dashoffset:0;stroke-width:1.3;"/>
   </g>
   <g id="line2d_144">
    <path clip-path="url(#pdcd2d889c7)" d="M 27.988912 158.352309 
L 30.116726 157.227968 
L 32.24454 155.974755 
L 34.372354 154.64743 
L 36.500168 153.279844 
L 38.627982 151.889876 
L 40.755796 150.486961 
L 42.88361 149.07629 
L 45.011424 147.660842 
L 47.139238 146.242394 
L 49.267052 144.822031 
L 51.394866 143.400432 
L 53.52268 141.978028 
L 55.650494 140.555095 
L 57.778308 139.131814 
L 59.906122 137.708302 
L 62.033936 136.284638 
L 64.16175 134.860871 
L 66.289564 133.437037 
L 68.417378 132.013157 
L 70.545192 130.589247 
L 72.673006 129.165317 
L 74.80082 127.741373 
L 76.928634 126.31742 
L 79.056448 124.89346 
L 81.184262 123.469497 
L 83.312075 122.045531 
L 85.439889 120.621563 
L 87.567703 119.197594 
L 89.695517 117.773624 
L 91.823331 116.349653 
L 93.951145 114.925682 
L 96.078959 113.501711 
L 98.206773 112.077739 
L 100.334587 110.653768 
L 102.462401 109.229796 
L 104.590215 107.805824 
L 106.718029 106.381853 
L 108.845843 104.957881 
L 110.973657 103.533909 
L 113.101471 102.109938 
L 115.229285 100.685966 
L 117.357099 99.261994 
L 119.484913 97.838022 
L 121.612727 96.414051 
L 123.740541 94.990079 
L 125.868355 93.566107 
L 127.996169 92.142135 
L 130.123983 90.718164 
L 132.251797 89.294192 
" style="fill:none;stroke:#0e1e97;stroke-dasharray:4.81,2.08;stroke-dashoffset:0;stroke-width:1.3;"/>
   </g>
   <g id="line2d_145">
    <path clip-path="url(#pdcd2d889c7)" d="M 27.988912 158.352309 
L 30.116726 157.732077 
L 32.24454 156.953809 
L 34.372354 156.021835 
L 36.500168 154.955442 
L 38.627982 153.782099 
L 40.755796 152.529596 
L 42.88361 151.221271 
L 45.011424 149.87471 
L 47.139238 148.502376 
L 49.267052 147.112811 
L 51.394866 145.711767 
L 53.52268 144.303084 
L 55.650494 142.889317 
L 57.778308 141.472161 
L 59.906122 140.052747 
L 62.033936 138.631826 
L 64.16175 137.209896 
L 66.289564 135.787293 
L 68.417378 134.364238 
L 70.545192 132.940881 
L 72.673006 131.517322 
L 74.80082 130.093627 
L 76.928634 128.669841 
L 79.056448 127.245994 
L 81.184262 125.822106 
L 83.312075 124.398191 
L 85.439889 122.974257 
L 87.567703 121.55031 
L 89.695517 120.126355 
L 91.823331 118.702395 
L 93.951145 117.278431 
L 96.078959 115.854464 
L 98.206773 114.430496 
L 100.334587 113.006527 
L 102.462401 111.582556 
L 104.590215 110.158586 
L 106.718029 108.734615 
L 108.845843 107.310643 
L 110.973657 105.886672 
L 113.101471 104.4627 
L 115.229285 103.038729 
L 117.357099 101.614757 
L 119.484913 100.190785 
L 121.612727 98.766814 
L 123.740541 97.342842 
L 125.868355 95.91887 
L 127.996169 94.494898 
L 130.123983 93.070927 
L 132.251797 91.646955 
" style="fill:none;stroke:#0e7b97;stroke-dasharray:4.81,2.08;stroke-dashoffset:0;stroke-width:1.3;"/>
   </g>
   <g id="patch_9">
    <path d="M 27.988912 178.95 
L 27.988912 96.559235 
" style="fill:none;stroke:#000000;stroke-linecap:square;stroke-linejoin:miter;"/>
   </g>
   <g id="patch_10">
    <path d="M 27.988912 178.95 
L 132.251797 178.95 
" style="fill:none;stroke:#000000;stroke-linecap:square;stroke-linejoin:miter;"/>
   </g>
   <g id="text_23">
    <!-- C -->
    <defs>
     <path d="M 53.078125 26.3125 
L 67.09375 21.875 
Q 63.875 10.15625 56.375 4.46875 
Q 48.875 -1.21875 37.359375 -1.21875 
Q 23.09375 -1.21875 13.90625 8.515625 
Q 4.734375 18.265625 4.734375 35.15625 
Q 4.734375 53.03125 13.953125 62.90625 
Q 23.1875 72.796875 38.234375 72.796875 
Q 51.375 72.796875 59.578125 65.046875 
Q 64.453125 60.453125 66.890625 51.859375 
L 52.59375 48.4375 
Q 51.3125 54 47.28125 57.21875 
Q 43.265625 60.453125 37.5 60.453125 
Q 29.546875 60.453125 24.578125 54.734375 
Q 19.625 49.03125 19.625 36.234375 
Q 19.625 22.65625 24.5 16.890625 
Q 29.390625 11.140625 37.203125 11.140625 
Q 42.96875 11.140625 47.109375 14.796875 
Q 51.265625 18.453125 53.078125 26.3125 
z
" id="Arial-BoldMT-67"/>
    </defs>
    <g transform="translate(14.434737 103.717048)scale(0.1 -0.1)">
     <use xlink:href="#Arial-BoldMT-67"/>
    </g>
   </g>
  </g>
  <g id="axes_4">
   <g id="patch_11">
    <path d="M 147.647115 178.95 
L 251.91 178.95 
L 251.91 96.559235 
L 147.647115 96.559235 
z
" style="fill:#ffffff;"/>
   </g>
   <g id="matplotlib.axis_7">
    <g id="xtick_13">
     <g id="line2d_146">
      <g>
       <use style="stroke:#000000;stroke-width:0.8;" x="147.647115" xlink:href="#mcf518a9907" y="178.95"/>
      </g>
     </g>
     <g id="text_24">
      <!-- 0 -->
      <g transform="translate(145.562598 188.816212)scale(0.07497 -0.07497)">
       <use xlink:href="#ArialMT-48"/>
      </g>
     </g>
    </g>
    <g id="xtick_14">
     <g id="line2d_147">
      <g>
       <use style="stroke:#000000;stroke-width:0.8;" x="179.728003" xlink:href="#mcf518a9907" y="178.95"/>
      </g>
     </g>
     <g id="text_25">
      <!-- 2 -->
      <g transform="translate(177.643485 188.816212)scale(0.07497 -0.07497)">
       <use xlink:href="#ArialMT-50"/>
      </g>
     </g>
    </g>
    <g id="xtick_15">
     <g id="line2d_148">
      <g>
       <use style="stroke:#000000;stroke-width:0.8;" x="211.80889" xlink:href="#mcf518a9907" y="178.95"/>
      </g>
     </g>
     <g id="text_26">
      <!-- 4 -->
      <g transform="translate(209.724373 188.816212)scale(0.07497 -0.07497)">
       <use xlink:href="#ArialMT-52"/>
      </g>
     </g>
    </g>
    <g id="xtick_16">
     <g id="line2d_149">
      <g>
       <use style="stroke:#000000;stroke-width:0.8;" x="243.889778" xlink:href="#mcf518a9907" y="178.95"/>
      </g>
     </g>
     <g id="text_27">
      <!-- 6 -->
      <g transform="translate(241.805261 188.816212)scale(0.07497 -0.07497)">
       <use xlink:href="#ArialMT-54"/>
      </g>
     </g>
    </g>
    <g id="text_28">
     <!-- Time in days -->
     <g transform="translate(178.533348 197.172453)scale(0.07497 -0.07497)">
      <use xlink:href="#ArialMT-84"/>
      <use x="61.037109" xlink:href="#ArialMT-105"/>
      <use x="83.253906" xlink:href="#ArialMT-109"/>
      <use x="166.554688" xlink:href="#ArialMT-101"/>
      <use x="222.169922" xlink:href="#ArialMT-32"/>
      <use x="249.953125" xlink:href="#ArialMT-105"/>
      <use x="272.169922" xlink:href="#ArialMT-110"/>
      <use x="327.785156" xlink:href="#ArialMT-32"/>
      <use x="355.568359" xlink:href="#ArialMT-100"/>
      <use x="411.183594" xlink:href="#ArialMT-97"/>
      <use x="466.798828" xlink:href="#ArialMT-121"/>
      <use x="516.798828" xlink:href="#ArialMT-115"/>
     </g>
    </g>
   </g>
   <g id="matplotlib.axis_8">
    <g id="ytick_109">
     <g id="line2d_150">
      <g>
       <use style="stroke:#000000;stroke-width:0.8;" x="147.647115" xlink:href="#mf7257a62e9" y="178.95"/>
      </g>
     </g>
    </g>
    <g id="ytick_110">
     <g id="line2d_151">
      <g>
       <use style="stroke:#000000;stroke-width:0.8;" x="147.647115" xlink:href="#mf7257a62e9" y="158.352309"/>
      </g>
     </g>
    </g>
    <g id="ytick_111">
     <g id="line2d_152">
      <g>
       <use style="stroke:#000000;stroke-width:0.8;" x="147.647115" xlink:href="#mf7257a62e9" y="137.754618"/>
      </g>
     </g>
    </g>
    <g id="ytick_112">
     <g id="line2d_153">
      <g>
       <use style="stroke:#000000;stroke-width:0.8;" x="147.647115" xlink:href="#mf7257a62e9" y="117.156926"/>
      </g>
     </g>
    </g>
    <g id="ytick_113">
     <g id="line2d_154"/>
    </g>
    <g id="ytick_114">
     <g id="line2d_155"/>
    </g>
    <g id="ytick_115">
     <g id="line2d_156"/>
    </g>
    <g id="ytick_116">
     <g id="line2d_157"/>
    </g>
    <g id="ytick_117">
     <g id="line2d_158"/>
    </g>
    <g id="ytick_118">
     <g id="line2d_159"/>
    </g>
    <g id="ytick_119">
     <g id="line2d_160"/>
    </g>
    <g id="ytick_120">
     <g id="line2d_161"/>
    </g>
    <g id="ytick_121">
     <g id="line2d_162"/>
    </g>
    <g id="ytick_122">
     <g id="line2d_163"/>
    </g>
    <g id="ytick_123">
     <g id="line2d_164"/>
    </g>
    <g id="ytick_124">
     <g id="line2d_165"/>
    </g>
    <g id="ytick_125">
     <g id="line2d_166"/>
    </g>
    <g id="ytick_126">
     <g id="line2d_167"/>
    </g>
    <g id="ytick_127">
     <g id="line2d_168"/>
    </g>
    <g id="ytick_128">
     <g id="line2d_169"/>
    </g>
    <g id="ytick_129">
     <g id="line2d_170"/>
    </g>
    <g id="ytick_130">
     <g id="line2d_171"/>
    </g>
    <g id="ytick_131">
     <g id="line2d_172"/>
    </g>
    <g id="ytick_132">
     <g id="line2d_173"/>
    </g>
    <g id="ytick_133">
     <g id="line2d_174"/>
    </g>
    <g id="ytick_134">
     <g id="line2d_175"/>
    </g>
    <g id="ytick_135">
     <g id="line2d_176"/>
    </g>
    <g id="ytick_136">
     <g id="line2d_177"/>
    </g>
    <g id="ytick_137">
     <g id="line2d_178"/>
    </g>
    <g id="ytick_138">
     <g id="line2d_179"/>
    </g>
    <g id="ytick_139">
     <g id="line2d_180"/>
    </g>
    <g id="ytick_140">
     <g id="line2d_181"/>
    </g>
    <g id="ytick_141">
     <g id="line2d_182"/>
    </g>
    <g id="ytick_142">
     <g id="line2d_183"/>
    </g>
    <g id="ytick_143">
     <g id="line2d_184"/>
    </g>
    <g id="ytick_144">
     <g id="line2d_185"/>
    </g>
   </g>
   <g id="line2d_186">
    <path clip-path="url(#pec57bf7ce7)" d="M 147.647115 158.352309 
L 149.774929 157.424035 
L 151.902743 156.500191 
L 154.030557 155.581872 
L 156.158371 154.670107 
L 158.286185 153.765841 
L 160.413999 152.869917 
L 162.541813 151.983064 
L 164.669627 151.105886 
L 166.797441 150.238859 
L 168.925255 149.38233 
L 171.053069 148.536522 
L 173.180883 147.701543 
L 175.308697 146.877394 
L 177.436511 146.063985 
L 179.564325 145.261149 
L 181.692139 144.468653 
L 183.819953 143.686214 
L 185.947767 142.913509 
L 188.075581 142.150187 
L 190.203395 141.395879 
L 192.331209 140.650203 
L 194.459023 139.912772 
L 196.586837 139.1832 
L 198.714651 138.461107 
L 200.842465 137.746117 
L 202.970279 137.037868 
L 205.098093 136.336006 
L 207.225906 135.640193 
L 209.35372 134.950104 
L 211.481534 134.265426 
L 213.609348 133.585864 
L 215.737162 132.911134 
L 217.864976 132.240969 
L 219.99279 131.575113 
L 222.120604 130.913326 
L 224.248418 130.255378 
L 226.376232 129.601054 
L 228.504046 128.95015 
L 230.63186 128.302473 
L 232.759674 127.657841 
L 234.887488 127.016082 
L 237.015302 126.377033 
L 239.143116 125.740542 
L 241.27093 125.106464 
L 243.398744 124.474664 
L 245.526558 123.845013 
L 247.654372 123.217389 
L 249.782186 122.59168 
L 251.91 121.967776 
" style="fill:none;stroke:#0e1e97;stroke-linecap:round;stroke-width:1.3;"/>
   </g>
   <g id="line2d_187">
    <path clip-path="url(#pec57bf7ce7)" d="M 147.647115 158.352309 
L 149.774929 158.127706 
L 151.902743 157.905679 
L 154.030557 157.686815 
L 156.158371 157.471638 
L 158.286185 157.260589 
L 160.413999 157.054029 
L 162.541813 156.852226 
L 164.669627 156.655364 
L 166.797441 156.463541 
L 168.925255 156.276782 
L 171.053069 156.095046 
L 173.180883 155.918237 
L 175.308697 155.746214 
L 177.436511 155.578806 
L 179.564325 155.415815 
L 181.692139 155.25703 
L 183.819953 155.102232 
L 185.947767 154.951198 
L 188.075581 154.803709 
L 190.203395 154.659548 
L 192.331209 154.518507 
L 194.459023 154.380388 
L 196.586837 154.245001 
L 198.714651 154.112167 
L 200.842465 153.981717 
L 202.970279 153.853493 
L 205.098093 153.727348 
L 207.225906 153.603144 
L 209.35372 153.480752 
L 211.481534 153.360052 
L 213.609348 153.240933 
L 215.737162 153.123291 
L 217.864976 153.007029 
L 219.99279 152.892059 
L 222.120604 152.778296 
L 224.248418 152.665663 
L 226.376232 152.554088 
L 228.504046 152.443504 
L 230.63186 152.333848 
L 232.759674 152.225062 
L 234.887488 152.117091 
L 237.015302 152.009886 
L 239.143116 151.903398 
L 241.27093 151.797585 
L 243.398744 151.692404 
L 245.526558 151.587817 
L 247.654372 151.483789 
L 249.782186 151.380285 
L 251.91 151.277275 
" style="fill:none;stroke:#0e7b97;stroke-linecap:round;stroke-width:1.3;"/>
   </g>
   <g id="line2d_188">
    <path clip-path="url(#pec57bf7ce7)" d="M 147.647115 158.352309 
L 149.774929 157.758987 
L 151.902743 157.165666 
L 154.030557 156.572344 
L 156.158371 155.979023 
L 158.286185 155.385701 
L 160.413999 154.792379 
L 162.541813 154.199058 
L 164.669627 153.605736 
L 166.797441 153.012415 
L 168.925255 152.419093 
L 171.053069 151.825772 
L 173.180883 151.23245 
L 175.308697 150.639128 
L 177.436511 150.045807 
L 179.564325 149.452485 
L 181.692139 148.859164 
L 183.819953 148.265842 
L 185.947767 147.672521 
L 188.075581 147.079199 
L 190.203395 146.485877 
L 192.331209 145.892556 
L 194.459023 145.299234 
L 196.586837 144.705913 
L 198.714651 144.112591 
L 200.842465 143.51927 
L 202.970279 142.925948 
L 205.098093 142.332626 
L 207.225906 141.739305 
L 209.35372 141.145983 
L 211.481534 140.552662 
L 213.609348 139.95934 
L 215.737162 139.366019 
L 217.864976 138.772697 
L 219.99279 138.179375 
L 222.120604 137.586054 
L 224.248418 136.992732 
L 226.376232 136.399411 
L 228.504046 135.806089 
L 230.63186 135.212768 
L 232.759674 134.619446 
L 234.887488 134.026124 
L 237.015302 133.432803 
L 239.143116 132.839481 
L 241.27093 132.24616 
L 243.398744 131.652838 
L 245.526558 131.059517 
L 247.654372 130.466195 
L 249.782186 129.872874 
L 251.91 129.279552 
" style="fill:none;stroke:#d62728;stroke-dasharray:1.3,2.145;stroke-dashoffset:0;stroke-width:1.3;"/>
   </g>
   <g id="line2d_189">
    <path clip-path="url(#pec57bf7ce7)" d="M 147.647115 158.352309 
L 149.774929 157.318911 
L 151.902743 156.298555 
L 154.030557 155.293031 
L 156.158371 154.303876 
L 158.286185 153.332301 
L 160.413999 152.379149 
L 162.541813 151.444887 
L 164.669627 150.529626 
L 166.797441 149.633171 
L 168.925255 148.755075 
L 171.053069 147.894708 
L 173.180883 147.051307 
L 175.308697 146.224031 
L 177.436511 145.411995 
L 179.564325 144.614303 
L 181.692139 143.830067 
L 183.819953 143.058426 
L 185.947767 142.298552 
L 188.075581 141.549659 
L 190.203395 140.811004 
L 192.331209 140.081889 
L 194.459023 139.361662 
L 196.586837 138.649713 
L 198.714651 137.945474 
L 200.842465 137.248419 
L 202.970279 136.558056 
L 205.098093 135.873931 
L 207.225906 135.195621 
L 209.35372 134.522735 
L 211.481534 133.854907 
L 213.609348 133.191801 
L 215.737162 132.533102 
L 217.864976 131.87852 
L 219.99279 131.227782 
L 222.120604 130.580638 
L 224.248418 129.936853 
L 226.376232 129.29621 
L 228.504046 128.658506 
L 230.63186 128.023551 
L 232.759674 127.391169 
L 234.887488 126.761197 
L 237.015302 126.133482 
L 239.143116 125.50788 
L 241.27093 124.884258 
L 243.398744 124.262492 
L 245.526558 123.642466 
L 247.654372 123.024071 
L 249.782186 122.407204 
L 251.91 121.791772 
" style="fill:none;stroke:#0e1e97;stroke-dasharray:4.81,2.08;stroke-dashoffset:0;stroke-width:1.3;"/>
   </g>
   <g id="line2d_190">
    <path clip-path="url(#pec57bf7ce7)" d="M 147.647115 158.352309 
L 149.774929 157.799946 
L 151.902743 157.230803 
L 154.030557 156.645116 
L 156.158371 156.043174 
L 158.286185 155.425322 
L 160.413999 154.791959 
L 162.541813 154.143541 
L 164.669627 153.480575 
L 166.797441 152.803622 
L 168.925255 152.113294 
L 171.053069 151.410252 
L 173.180883 150.695206 
L 175.308697 149.96891 
L 177.436511 149.232161 
L 179.564325 148.485794 
L 181.692139 147.730681 
L 183.819953 146.967727 
L 185.947767 146.19786 
L 188.075581 145.422032 
L 190.203395 144.641207 
L 192.331209 143.856359 
L 194.459023 143.068459 
L 196.586837 142.278468 
L 198.714651 141.487329 
L 200.842465 140.695955 
L 202.970279 139.905219 
L 205.098093 139.115947 
L 207.225906 138.328905 
L 209.35372 137.544797 
L 211.481534 136.764253 
L 213.609348 135.987828 
L 215.737162 135.216 
L 217.864976 134.449168 
L 219.99279 133.687655 
L 222.120604 132.931711 
L 224.248418 132.181516 
L 226.376232 131.43719 
L 228.504046 130.698792 
L 230.63186 129.966334 
L 232.759674 129.239783 
L 234.887488 128.519071 
L 237.015302 127.804097 
L 239.143116 127.094736 
L 241.27093 126.390841 
L 243.398744 125.692252 
L 245.526558 124.998796 
L 247.654372 124.310292 
L 249.782186 123.626555 
L 251.91 122.947394 
" style="fill:none;stroke:#0e7b97;stroke-dasharray:4.81,2.08;stroke-dashoffset:0;stroke-width:1.3;"/>
   </g>
   <g id="patch_12">
    <path d="M 147.647115 178.95 
L 147.647115 96.559235 
" style="fill:none;stroke:#000000;stroke-linecap:square;stroke-linejoin:miter;"/>
   </g>
   <g id="patch_13">
    <path d="M 147.647115 178.95 
L 251.91 178.95 
" style="fill:none;stroke:#000000;stroke-linecap:square;stroke-linejoin:miter;"/>
   </g>
   <g id="text_29">
    <!-- D -->
    <defs>
     <path d="M 7.234375 71.578125 
L 33.640625 71.578125 
Q 42.578125 71.578125 47.265625 70.21875 
Q 53.5625 68.359375 58.046875 63.625 
Q 62.546875 58.890625 64.890625 52.03125 
Q 67.234375 45.171875 67.234375 35.109375 
Q 67.234375 26.265625 65.046875 19.875 
Q 62.359375 12.0625 57.375 7.234375 
Q 53.609375 3.5625 47.21875 1.515625 
Q 42.4375 0 34.421875 0 
L 7.234375 0 
z
M 21.6875 59.46875 
L 21.6875 12.0625 
L 32.46875 12.0625 
Q 38.53125 12.0625 41.21875 12.75 
Q 44.734375 13.625 47.046875 15.71875 
Q 49.359375 17.828125 50.828125 22.625 
Q 52.296875 27.4375 52.296875 35.75 
Q 52.296875 44.046875 50.828125 48.484375 
Q 49.359375 52.9375 46.71875 55.421875 
Q 44.09375 57.90625 40.046875 58.796875 
Q 37.015625 59.46875 28.171875 59.46875 
z
" id="Arial-BoldMT-68"/>
    </defs>
    <g transform="translate(134.09294 103.717048)scale(0.1 -0.1)">
     <use xlink:href="#Arial-BoldMT-68"/>
    </g>
   </g>
  </g>
 </g>
 <defs>
  <clipPath id="p9d4b3afbc5">
   <rect height="82.390765" width="104.262885" x="27.988912" y="3.69"/>
  </clipPath>
  <clipPath id="pde2a716005">
   <rect height="82.390765" width="104.262885" x="147.647115" y="3.69"/>
  </clipPath>
  <clipPath id="pdcd2d889c7">
   <rect height="82.390765" width="104.262885" x="27.988912" y="96.559235"/>
  </clipPath>
  <clipPath id="pec57bf7ce7">
   <rect height="82.390765" width="104.262885" x="147.647115" y="96.559235"/>
  </clipPath>
 </defs>
</svg>
